<?xml version="1.0" encoding="utf-8"?>
<svg version="1.1" xmlns:xlink="http://www.w3.org/1999/xlink" width="34px" height="33px" xmlns="http://www.w3.org/2000/svg">
  <g transform="matrix(1 0 0 1 -1040 -48 )">
    <path d="M 28.0793628786671 28.695579284668  C 35.5140069694675 22.0308536773682  35.5140069694675 10.9691463562012  28.0793628786671 4.30475610656738  C 21.7275062360491 -1.38908535766602  12.0000199079241 -1.34515242919922  5.70028871572066 4.43621950073242  C -1.48455945671237 11.0298475372314  -1.48455945671237 21.9704877868652  5.70028871572066 28.5641158569336  C 12.0000199418048 34.3454878204346  21.7275062360491 34.389085357666  28.0793628786671 28.695579284668  Z M 23.9509606843909 23.4263109649658  L 23.9499452447385 23.4273170715332  C 23.5532503667092 23.8203658569336  22.9104828264509 23.8203658569336  22.5137879484216 23.4273170715332  L 17.0328322664222 17.9967378204346  C 17.0104927973533 17.9746036773682  16.974275777264 17.9746036773682  16.9515978057239 17.9967378204346  L 11.472334500558 23.4259756072998  C 11.0756396225287 23.8190243927002  10.4328720822704 23.8190243927002  10.0361772042411 23.4259756072998  L 10.0348232959981 23.4246341430664  C 9.63812841796875 23.031585357666  9.63812841796875 22.3947256072998  10.0348232959981 22.0016768218994  L 15.5144251036352 16.5724390350342  C 15.5367645727041 16.5503048919678  15.5367645727041 16.5144207489014  15.5144251036352 16.4919512145996  L 10.0334693877551 11.062042678833  C 9.63677450972576 10.6689938934326  9.63677450972576 10.0321341430664  10.0334693877551 9.63908535766602  L 10.0348232959981 9.63774389343262  C 10.4315181740274 9.24469510803223  11.0742857142857 9.24469510803223  11.4709805923151 9.63774389343262  L 16.9519362743144 15.0683231781006  C 16.9742757433833 15.090457321167  17.0104927634726 15.090457321167  17.0331707350128 15.0683231781006  L 22.5154803252551 9.63640242919922  C 22.9121752032844 9.24335364379883  23.5549427435427 9.24335364379883  23.9516376215721 9.63640242919922  L 23.952991529815 9.63774389343262  C 24.3496864078444 10.030792678833  24.3496864078444 10.6676524291992  23.952991529815 11.0607012145996  L 18.4703434709821 16.4922865722656  C 18.4480040019133 16.514420715332  18.4480040019133 16.5503048583984  18.4703434709821 16.5727743927002  L 23.9509606843909 22.0033536437988  C 24.3476555624203 22.3964024291992  24.3476555624203 23.0332621795654  23.9509606843909 23.4263109649658  Z " fill-rule="nonzero" fill="#aaaaaa" stroke="none" transform="matrix(1 0 0 1 1040 48 )" />
  </g>
</svg>