<?xml version="1.0" encoding="utf-8"?>
<svg version="1.1" xmlns:xlink="http://www.w3.org/1999/xlink" width="13px" height="15px" xmlns="http://www.w3.org/2000/svg">
  <g transform="matrix(1 0 0 1 -671 -187 )">
    <path d="M 11.3684212890625 7.12684437144886  C 11.2483223632812 8.36326970880682  10.761902734375 9.49566850142046  10.0168173828125 10.392401899858  L 12.6065278320313 13.1088813920455  C 12.8815159179688 13.3973304332386  12.8815159179688 13.8650084339489  12.6065278320313 14.1534747869318  C 12.3315232421875 14.441923828125  11.8856702148437 14.441923828125  11.6106821289063 14.1534747869318  L 8.96395068359375 11.3771830610795  C 8.318928515625 11.8422816051136  7.57339755859375 12.1710671164773  6.7619830078125 12.321143022017  C 3.7117310546875 12.8853169389205  0.802983593750001 10.748886274858  0.265137792968751 7.5493212890625  C -0.272708007812499 4.34975630326705  1.76402255859375 1.29863991477273  4.81427451171875 0.734465997869319  C 7.38951103515625 0.258149414062501  9.91921328125 1.71171653053977  10.9391381835938 4.19846857244318  C 11.0928390625 4.57319957386364  10.9278330078125 5.00765625  10.570589453125 5.16888094815341  C 10.2133458984375 5.33010564630682  9.79914736328125 5.15702237215909  9.645446484375 4.78229137073864  C 8.88225634765625 2.9214990234375  6.98724482421875 1.8326220703125  5.05882939453125 2.189296875  C 2.77455673828125 2.61179110440341  1.24929873046875 4.89670498934659  1.65209306640625 7.2928125  C 2.05485439453125 9.68888538707386  4.23313896484375 11.2888063742898  6.517428125 10.8663121448864  C 8.37938232421875 10.5219287109375  9.7785669921875 8.92051890980114  9.967338671875 6.97711470170455  C 10.0067665039062 6.5712744140625  10.3523748046875 6.27581409801136  10.739259375 6.31715465198864  C 11.1261604492187 6.35849520596591  11.4078326171875 6.72102139559659  11.3684212890625 7.12684437144886  Z " fill-rule="nonzero" fill="#7f7f7f" stroke="none" transform="matrix(1 0 0 1 671 187 )" />
  </g>
</svg>