<?xml version="1.0" encoding="utf-8"?>
<svg version="1.1" xmlns:xlink="http://www.w3.org/1999/xlink" width="12px" height="12px" xmlns="http://www.w3.org/2000/svg">
  <g transform="matrix(1 0 0 1 -2263 -2042 )">
    <path d="M 2269 2042  C 2272.36 2042  2275 2044.64  2275 2048  C 2275 2051.36  2272.36 2054  2269 2054  C 2265.64 2054  2263 2051.36  2263 2048  C 2263 2044.64  2265.64 2042  2269 2042  Z " fill-rule="nonzero" fill="#95f204" stroke="none" />
    <path d="M 2269 2042.5  C 2272.08 2042.5  2274.5 2044.92  2274.5 2048  C 2274.5 2051.08  2272.08 2053.5  2269 2053.5  C 2265.92 2053.5  2263.5 2051.08  2263.5 2048  C 2263.5 2044.92  2265.92 2042.5  2269 2042.5  Z " stroke-width="1" stroke="#797979" fill="none" />
  </g>
</svg>