<?xml version="1.0" encoding="utf-8"?>
<svg version="1.1" xmlns:xlink="http://www.w3.org/1999/xlink" width="6px" height="5px" xmlns="http://www.w3.org/2000/svg">
  <g transform="matrix(1 0 0 1 -1837 -3431 )">
    <path d="M 2.16 0.5875  L 5.148 0.5875  C 5.264 0.5875  5.358 0.615  5.43 0.67  C 5.502 0.725  5.55 0.7975  5.574 0.8875  C 5.598 0.9775  5.598 1.07875  5.574 1.19125  C 5.55 1.30375  5.498 1.415  5.418 1.525  C 5.094 1.975  4.782 2.415  4.482 2.845  C 4.182 3.275  3.892 3.6775  3.612 4.0525  C 3.536 4.1525  3.447 4.23  3.345 4.285  C 3.243 4.34  3.138 4.36875  3.03 4.37125  C 2.922 4.37375  2.818 4.3525  2.718 4.3075  C 2.618 4.2625  2.534 4.1925  2.466 4.0975  C 2.31 3.8825  2.148 3.6625  1.98 3.4375  L 1.464 2.7625  C 1.296 2.5375  1.129 2.31625  0.963 2.09875  C 0.797 1.88125  0.642 1.67  0.498 1.465  C 0.43 1.37  0.386 1.27125  0.366 1.16875  C 0.346 1.06625  0.348 0.972500000000001  0.372 0.8875  C 0.396 0.8025  0.442 0.7325  0.51 0.6775  C 0.578 0.6225  0.666 0.595  0.774 0.595  C 0.914 0.595  1.107 0.59375  1.353 0.59125  C 1.599 0.58875  1.868 0.5875  2.16 0.5875  Z " fill-rule="nonzero" fill="#000000" stroke="none" transform="matrix(1 0 0 1 1837 3431 )" />
  </g>
</svg>