<?xml version="1.0" encoding="utf-8"?>
<svg version="1.1" xmlns:xlink="http://www.w3.org/1999/xlink" width="4px" height="3px" xmlns="http://www.w3.org/2000/svg">
  <g transform="matrix(1 0 0 1 -174 -1945 )">
    <path d="M 1.44 0.3525  L 3.432 0.3525  C 3.50933333333333 0.3525  3.572 0.369  3.62 0.402  C 3.668 0.435  3.7 0.4785  3.716 0.5325  C 3.732 0.5865  3.732 0.64725  3.716 0.71475  C 3.7 0.78225  3.66533333333333 0.849  3.612 0.915  C 3.396 1.185  3.188 1.449  2.988 1.707  C 2.788 1.965  2.59466666666667 2.2065  2.408 2.4315  C 2.35733333333333 2.4915  2.298 2.538  2.23 2.571  C 2.162 2.604  2.092 2.62125  2.02 2.62275  C 1.948 2.62425  1.87866666666667 2.6115  1.812 2.5845  C 1.74533333333333 2.5575  1.68933333333333 2.5155  1.644 2.4585  C 1.54 2.3295  1.432 2.1975  1.32 2.0625  L 0.976 1.6575  C 0.864 1.5225  0.752666666666667 1.38975  0.642 1.25925  C 0.531333333333334 1.12875  0.428 1.002  0.332 0.879  C 0.286666666666667 0.822  0.257333333333333 0.76275  0.244 0.70125  C 0.230666666666667 0.63975  0.232 0.5835  0.248 0.5325  C 0.264 0.4815  0.294666666666667 0.4395  0.34 0.4065  C 0.385333333333334 0.3735  0.444 0.357  0.516 0.357  C 0.609333333333334 0.357  0.738 0.35625  0.902 0.35475  C 1.066 0.35325  1.24533333333333 0.3525  1.44 0.3525  Z " fill-rule="nonzero" fill="#000000" stroke="none" transform="matrix(1 0 0 1 174 1945 )" />
  </g>
</svg>