<?xml version="1.0" encoding="utf-8"?>
<svg version="1.1" xmlns:xlink="http://www.w3.org/1999/xlink" width="15px" height="15px" xmlns="http://www.w3.org/2000/svg">
  <g transform="matrix(1 0 0 1 -275 -1902 )">
    <path d="M 14.0625 9.17724609375  C 13.38720703125 8.91796875  12.9052734375 8.267578125  12.9052734375 7.5  C 12.9052734375 6.732421875  13.38720703125 6.08203125  14.0625 5.82275390625  C 13.9013671875 5.18994140625  13.65234375 4.59375  13.3271484375 4.0458984375  C 12.6650390625 4.34033203125  11.865234375 4.22021484375  11.3232421875 3.6767578125  C 10.78125 3.134765625  10.6611328125 2.33349609375  10.95556640625 1.6728515625  C 10.40625 1.34765625  9.81005859375 1.0986328125  9.17724609375 0.9375  C 8.91650390625 1.61279296875  8.26611328125 2.0947265625  7.5 2.0947265625  C 6.732421875 2.0947265625  6.08203125 1.61279296875  5.82275390625 0.9375  C 5.18994140625 1.0986328125  4.59375 1.34765625  4.0458984375 1.6728515625  C 4.34033203125 2.3349609375  4.22021484375 3.134765625  3.67822265625 3.6767578125  C 3.13623046875 4.21875  2.3349609375 4.3388671875  1.67431640625 4.0458984375  C 1.34765625 4.59375  1.0986328125 5.18994140625  0.9375 5.82275390625  C 1.61279296875 6.08349609375  2.0947265625 6.73388671875  2.0947265625 7.5  C 2.0947265625 8.267578125  1.61279296875 8.91796875  0.9375 9.17724609375  C 1.0986328125 9.81005859375  1.34765625 10.40625  1.6728515625 10.9541015625  C 2.3349609375 10.65966796875  3.134765625 10.77978515625  3.6767578125 11.3232421875  C 4.21875 11.865234375  4.3388671875 12.66650390625  4.04443359375 13.3271484375  C 4.59375 13.65234375  5.18994140625 13.9013671875  5.82275390625 14.0625  C 6.08349609375 13.38720703125  6.73388671875 12.9052734375  7.5 12.9052734375  C 8.267578125 12.9052734375  8.91796875 13.38720703125  9.17724609375 14.0625  C 9.81005859375 13.9013671875  10.40625 13.65234375  10.9541015625 13.3271484375  C 10.65966796875 12.6650390625  10.77978515625 11.865234375  11.32177734375 11.3232421875  C 11.86376953125 10.78125  12.6650390625 10.6611328125  13.32568359375 10.9541015625  C 13.65234375 10.40625  13.9013671875 9.81005859375  14.0625 9.17724609375  Z M 9.3017578125 7.5  C 9.3017578125 8.49462890625  8.49462890625 9.3017578125  7.5 9.3017578125  C 6.50537109375 9.3017578125  5.6982421875 8.49462890625  5.6982421875 7.5  C 5.6982421875 6.50537109375  6.50537109375 5.6982421875  7.5 5.6982421875  C 8.49462890625 5.6982421875  9.3017578125 6.50537109375  9.3017578125 7.5  Z " fill-rule="nonzero" fill="#000000" stroke="none" transform="matrix(1 0 0 1 275 1902 )" />
  </g>
</svg>