<?xml version="1.0" encoding="utf-8"?>
<svg version="1.1" xmlns:xlink="http://www.w3.org/1999/xlink" width="170px" height="170px" xmlns="http://www.w3.org/2000/svg">
  <g transform="matrix(1 0 0 1 -2152 -1546 )">
    <path d="M 2237 1546.5  C 2284.32 1546.5  2321.5 1583.68  2321.5 1631  C 2321.5 1678.32  2284.32 1715.5  2237 1715.5  C 2189.68 1715.5  2152.5 1678.32  2152.5 1631  C 2152.5 1583.68  2189.68 1546.5  2237 1546.5  Z " fill-rule="nonzero" fill="#ffffff" stroke="none" />
    <path d="M 2237 1546.5  C 2284.32 1546.5  2321.5 1583.68  2321.5 1631  C 2321.5 1678.32  2284.32 1715.5  2237 1715.5  C 2189.68 1715.5  2152.5 1678.32  2152.5 1631  C 2152.5 1583.68  2189.68 1546.5  2237 1546.5  Z " stroke-width="1" stroke-dasharray="3,1" stroke="#d7d7d7" fill="none" stroke-dashoffset="0.5" />
  </g>
</svg>