<?xml version="1.0" encoding="utf-8"?>
<svg version="1.1" xmlns:xlink="http://www.w3.org/1999/xlink" width="20px" height="20px" xmlns="http://www.w3.org/2000/svg">
  <g transform="matrix(1 0 0 1 -220 -9 )">
    <path d="M 6.12090277777778 19.8684583333333  L 6.12090277777778 15.9654097222222  L 8.52625 15.9654097222222  L 8.52625 19.8684583333333  L 6.12090277777778 19.8684583333333  Z M 19.3976514040799 0  L 0.471606904296875 0  C 0.221128580729167 0.000785729166666667  0.0180772960069444 0.203836993272569  0 0.454315316840278  L 0 16.8406077777778  L 3.05086640842014 19.8339121028646  L 4.43587219184028 19.8339121028646  L 4.43587219184028 19.831347906901  L 4.43587219184028 19.1574300499132  L 4.43587219184028 14.0511942957899  L 13.5582026193576 14.0511942957899  L 13.5582026193576 19.831347906901  L 13.5439745138889 19.831347906901  L 13.5439745138889 19.8339121028646  L 19.3976514040799 19.8339121028646  C 19.6481298513455 19.8339121028646  19.8511809917535 19.6308609624566  19.8511809917535 19.380382515191  L 19.8511809917535 0.454315316840278  C 19.8512036903212 0.203836993272569  19.648152405599 0.000785729166666667  19.3976514040799 0.000785729166666667  Z M 16.685618968099 9.9817725640191  L 16.685618968099 10  L 3.18366212131076 10  L 3.18366212131076 1  L 16.685618968099 1  L 16.685618968099 9.9817725640191  Z M 6.12090277777778 19.9633263888889  L 6.12090277777778 19.8313819444444  L 8.52625 19.8313819444444  L 8.52625 19.9633263888889  L 6.12090277777778 19.9633263888889  Z " fill-rule="nonzero" fill="#ffffff" stroke="none" transform="matrix(1 0 0 1 220 9 )" />
  </g>
</svg>