<?xml version="1.0" encoding="utf-8"?>
<svg version="1.1" xmlns:xlink="http://www.w3.org/1999/xlink" width="17px" height="19px" xmlns="http://www.w3.org/2000/svg">
  <g transform="matrix(1 0 0 1 -257 -10 )">
    <path d="M 15.91 7.34  C 16.29 8.24666666666667  16.48 9.20666666666667  16.48 10.22  C 16.48 11.2466666666667  16.2866666666667 12.2133333333333  15.9 13.12  C 15.5133333333333 14.0266666666667  14.9833333333333 14.83  14.31 15.53  C 13.6366666666667 16.23  12.8433333333333 16.8033333333333  11.93 17.25  C 11.0166666666667 17.6966666666667  10.0333333333333 17.9666666666667  8.98 18.06  C 8.91333333333333 18.0733333333333  8.85333333333333 18.0833333333333  8.8 18.09  C 8.74666666666667 18.0966666666667  8.68666666666667 18.1  8.62 18.1  L 5.16 18.1  C 4.93333333333333 18.1  4.71 18.06  4.49 17.98  C 4.27 17.9  4.07333333333333 17.79  3.9 17.65  C 3.72666666666667 17.51  3.58333333333333 17.3466666666667  3.47 17.16  C 3.35666666666667 16.9733333333333  3.3 16.78  3.3 16.58  C 3.3 16.38  3.35333333333333 16.1866666666667  3.46 16  C 3.56666666666667 15.8133333333333  3.70666666666667 15.6533333333333  3.88 15.52  C 4.05333333333333 15.3866666666667  4.24666666666667 15.28  4.46 15.2  C 4.67333333333333 15.12  4.89333333333333 15.08  5.12 15.08  L 8.22 15.1  C 8.92666666666667 15.1  9.59333333333333 14.97  10.22 14.71  C 10.8466666666667 14.45  11.3933333333333 14.1  11.86 13.66  C 12.3266666666667 13.22  12.6933333333333 12.7033333333333  12.96 12.11  C 13.2266666666667 11.5166666666667  13.36 10.88  13.36 10.2  C 13.36 9.56  13.24 8.96  13 8.4  C 12.76 7.84  12.43 7.34  12.01 6.9  C 11.59 6.46  11.1 6.10333333333333  10.54 5.83  C 9.98 5.55666666666667  9.37333333333333 5.38666666666666  8.72 5.32  C 8.69333333333333 5.32  8.67666666666667 5.32333333333333  8.67 5.33  C 8.66333333333333 5.33666666666666  8.64666666666667 5.34  8.62 5.34  L 5.44 5.34  L 5.44 6.92  C 5.44 7.14666666666666  5.35 7.31333333333333  5.17 7.42  C 4.99 7.52666666666666  4.7 7.46  4.3 7.22  C 4.19333333333333 7.15333333333333  4.02333333333333 7.03666666666666  3.79 6.87  C 3.55666666666667 6.70333333333333  3.28333333333333 6.50666666666667  2.97 6.28  C 2.65666666666667 6.05333333333333  2.32666666666667 5.81333333333333  1.98 5.56  L 0.979999999999999 4.8  C 0.779999999999999 4.64  0.606666666666666 4.49666666666667  0.459999999999999 4.37  C 0.313333333333333 4.24333333333333  0.239999999999999 4.08666666666667  0.239999999999999 3.9  C 0.239999999999999 3.74  0.323333333333333 3.57333333333333  0.489999999999999 3.4  C 0.656666666666666 3.22666666666667  0.846666666666666 3.05333333333333  1.06 2.88  C 1.3 2.68  1.58666666666667 2.44666666666667  1.92 2.18  C 2.25333333333333 1.91333333333333  2.58333333333333 1.65333333333333  2.91 1.4  C 3.23666666666667 1.14666666666667  3.53 0.916666666666665  3.79 0.709999999999998  C 4.05 0.503333333333332  4.23333333333333 0.359999999999998  4.34 0.279999999999998  C 4.66 0.0533333333333317  4.92 0.00666666666666504  5.12 0.139999999999998  C 5.32 0.273333333333332  5.42666666666666 0.473333333333332  5.44 0.739999999999998  L 5.44 2.34  L 8.62 2.34  C 8.68666666666667 2.34  8.75666666666667 2.34666666666667  8.83 2.36  C 8.90333333333333 2.37333333333333  8.97333333333333 2.38666666666667  9.04 2.4  C 10.08 2.50666666666667  11.0533333333333 2.78  11.96 3.22  C 12.8666666666667 3.66  13.6566666666667 4.23  14.33 4.93  C 15.0033333333333 5.63  15.53 6.43333333333333  15.91 7.34  Z " fill-rule="nonzero" fill="#ffffff" stroke="none" transform="matrix(1 0 0 1 257 10 )" />
  </g>
</svg>