<?xml version="1.0" encoding="utf-8"?>
<svg version="1.1" xmlns:xlink="http://www.w3.org/1999/xlink" width="17px" height="19px" xmlns="http://www.w3.org/2000/svg">
  <g transform="matrix(1 0 0 1 -294 -10 )">
    <path d="M 1.09 7.34  C 0.710000000000002 8.24666666666667  0.519999999999995 9.20666666666667  0.519999999999999 10.22  C 0.519999999999995 11.2466666666667  0.713333333333332 12.2133333333333  1.1 13.12  C 1.48666666666667 14.0266666666667  2.01666666666667 14.83  2.69 15.53  C 3.36333333333333 16.23  4.15666666666667 16.8033333333333  5.07 17.25  C 5.98333333333333 17.6966666666667  6.96666666666667 17.9666666666667  8.02 18.06  C 8.08666666666667 18.0733333333333  8.14666666666667 18.0833333333333  8.2 18.09  C 8.25333333333333 18.0966666666667  8.31333333333333 18.1  8.38 18.1  L 11.84 18.1  C 12.0666666666667 18.1  12.29 18.06  12.51 17.98  C 12.73 17.9  12.9266666666667 17.79  13.1 17.65  C 13.2733333333333 17.51  13.4166666666667 17.3466666666667  13.53 17.16  C 13.6433333333333 16.9733333333333  13.7 16.78  13.7 16.58  C 13.7 16.38  13.6466666666667 16.1866666666667  13.54 16  C 13.4333333333333 15.8133333333333  13.2933333333333 15.6533333333333  13.12 15.52  C 12.9466666666667 15.3866666666667  12.7533333333333 15.28  12.54 15.2  C 12.3266666666667 15.12  12.1066666666667 15.08  11.88 15.08  L 8.78 15.1  C 8.07333333333333 15.1  7.40666666666667 14.97  6.78 14.71  C 6.15333333333334 14.45  5.60666666666667 14.1  5.14 13.66  C 4.67333333333333 13.22  4.30666666666667 12.7033333333333  4.04 12.11  C 3.77333333333333 11.5166666666667  3.64 10.88  3.64 10.2  C 3.64 9.56  3.76 8.96  4 8.4  C 4.24 7.84  4.57 7.34  4.99 6.9  C 5.41 6.46  5.9 6.10333333333333  6.46 5.83  C 7.02 5.55666666666667  7.62666666666667 5.38666666666666  8.28 5.32  C 8.30666666666667 5.32  8.32333333333333 5.32333333333333  8.33 5.33  C 8.33666666666667 5.33666666666666  8.35333333333333 5.34  8.38 5.34  L 11.56 5.34  L 11.56 6.92  C 11.56 7.14666666666666  11.65 7.31333333333333  11.83 7.42  C 12.01 7.52666666666666  12.3 7.46  12.7 7.22  C 12.8066666666667 7.15333333333333  12.9766666666667 7.03666666666666  13.21 6.87  C 13.4433333333333 6.70333333333333  13.7166666666667 6.50666666666667  14.03 6.28  C 14.3433333333333 6.05333333333333  14.6733333333333 5.81333333333333  15.02 5.56  L 16.02 4.8  C 16.22 4.64  16.3933333333333 4.49666666666667  16.54 4.37  C 16.6866666666667 4.24333333333333  16.76 4.08666666666667  16.76 3.9  C 16.76 3.74  16.6766666666667 3.57333333333333  16.51 3.4  C 16.3433333333333 3.22666666666667  16.1533333333333 3.05333333333333  15.94 2.88  C 15.7 2.68  15.4133333333333 2.44666666666667  15.08 2.18  C 14.7466666666667 1.91333333333333  14.4166666666667 1.65333333333333  14.09 1.4  C 13.7633333333333 1.14666666666667  13.47 0.916666666666665  13.21 0.709999999999998  C 12.95 0.503333333333332  12.7666666666667 0.359999999999998  12.66 0.279999999999998  C 12.34 0.0533333333333317  12.08 0.00666666666666504  11.88 0.139999999999998  C 11.68 0.273333333333332  11.5733333333333 0.473333333333332  11.56 0.739999999999998  L 11.56 2.34  L 8.38 2.34  C 8.31333333333333 2.34  8.24333333333333 2.34666666666667  8.17 2.36  C 8.09666666666667 2.37333333333333  8.02666666666667 2.38666666666667  7.96 2.4  C 6.92 2.50666666666667  5.94666666666667 2.78  5.04 3.22  C 4.13333333333333 3.66  3.34333333333333 4.23  2.67 4.93  C 1.99666666666667 5.63  1.47 6.43333333333333  1.09 7.34  Z " fill-rule="nonzero" fill="#ffffff" stroke="none" transform="matrix(1 0 0 1 294 10 )" />
  </g>
</svg>