<?xml version="1.0" encoding="utf-8"?>
<svg version="1.1" xmlns:xlink="http://www.w3.org/1999/xlink" width="18px" height="20px" xmlns="http://www.w3.org/2000/svg">
  <g transform="matrix(1 0 0 1 -681 -9 )">
    <path d="M 17.9077846153846 2.31893333333333  C 17.9130461538462 1.87306666666667  17.5289538461538 1.5032  17.0606769230769 1.5032  L 4.59609230769231 1.5032  C 4.12781538461538 1.5032  3.74898461538462 1.868  3.74898461538462 2.31893333333333  L 3.74898461538462 4.75093333333333  C 3.74898461538462 5.20186666666667  4.12781538461538 5.56666666666667  4.59609230769231 5.56666666666667  L 17.0606769230769 5.56666666666667  C 17.5289538461538 5.56666666666667  17.9077846153846 5.20186666666667  17.9077846153846 4.75093333333333  L 17.9077846153846 2.31893333333333  Z M 17.9077846153846 15.244  C 17.9130461538462 14.7930666666667  17.5289538461538 14.4282666666667  17.0606769230769 14.4282666666667  L 4.59609230769231 14.4282666666667  C 4.12781538461538 14.4282666666667  3.74898461538462 14.7930666666667  3.74898461538462 15.244  L 3.74898461538462 17.676  C 3.74898461538462 18.1269333333333  4.12781538461538 18.4917333333333  4.59609230769231 18.4917333333333  L 17.0606769230769 18.4917333333333  C 17.5289538461538 18.4917333333333  17.9077846153846 18.1269333333333  17.9077846153846 17.676  L 17.9077846153846 15.244  Z M 3.74898461538462 11.2210666666667  C 3.74898461538462 11.6669333333333  4.12781538461538 12.0368  4.59609230769231 12.0368  L 12.5094461538462 12.0368  C 12.9777230769231 12.0368  13.3565538461538 11.672  13.3565538461538 11.2210666666667  L 13.3565538461538 8.78906666666667  C 13.3565538461538 8.33813333333333  12.9777230769231 7.97333333333333  12.5094461538462 7.97333333333333  L 4.59609230769231 7.97333333333333  C 4.12781538461538 7.97333333333333  3.74898461538462 8.33813333333333  3.74898461538462 8.78906666666667  L 3.74898461538462 11.2210666666667  Z M 1.50230769230769 1.38666666666667  C 1.50230769230769 0.991466666666666  1.17083076923077 0.6672  0.755169230769231 0.6672  C 0.34476923076923 0.6672  0.00803076923076896 0.9864  0 1.38666666666667  L 0 18.6133333333333  C 0.00803076923076896 19.0085333333333  0.339507692307692 19.3328  0.755169230769231 19.3328  C 1.17083076923077 19.3328  1.50230769230769 19.0136  1.50230769230769 18.6133333333333  L 1.50230769230769 1.38666666666667  Z " fill-rule="nonzero" fill="#ffffff" stroke="none" transform="matrix(1 0 0 1 681 9 )" />
  </g>
</svg>