<?xml version="1.0" encoding="utf-8"?>
<svg version="1.1" xmlns:xlink="http://www.w3.org/1999/xlink" width="20px" height="18px" xmlns="http://www.w3.org/2000/svg">
  <g transform="matrix(1 0 0 1 -730 -10 )">
    <path d="M 19.4416666738281 5.51666667382812  C 19.5333333476562 5.15  19.4416666738281 4.78333334765625  19.2583333261719 4.69166667382812  L 11.0083333261719 0.566666673828125  C 10.4583333261719 0.199999999999999  9.81666665234375 0.199999999999999  9.26666667382812 0.566666673828125  L 1.01666667382812 4.69166667382812  C 1.01666667382812 4.78333334765625  0.924999999999999 4.875  0.833333326171874 4.875  C 0.741666652343749 5.24166667382812  0.833333326171874 5.60833332617188  1.10833332617187 5.7  L 4.04166667382813 7.16666667382813  L 1.56666667382812 8.45  C 1.29166667382812 8.63333332617188  1.10833334765625 8.90833332617188  1.10833332617187 9.18333332617188  C 1.10833332617187 9.45833332617187  1.29166665234375 9.825  1.56666667382812 9.91666667382813  L 3.675 11.0166666738281  L 1.56666667382812 12.1166666738281  C 1.29166667382813 12.3  1.10833334765625 12.575  1.10833332617187 12.85  C 1.10833332617187 13.125  1.29166665234375 13.4916666738281  1.56666667382812 13.5833333261719  L 9.26666667382812 17.4333333261719  C 9.54166667382813 17.6166666523438  9.81666667382813 17.7083333261719  10.0916666738281 17.7083333261719  C 10.3666666738281 17.7083333261719  10.7333333476563 17.6166666523438  11.0083333261719 17.4333333261719  L 18.7083333261719 13.5833333261719  C 18.9833333261719 13.4  19.1666666523437 13.125  19.1666666738281 12.85  C 19.1666666738281 12.575  18.9833333476562 12.2083333261719  18.7083333261719 12.1166666738281  L 16.6 11.0166666738281  L 18.7083333261719 9.91666667382813  C 18.9833333261719 9.73333334765625  19.1666666523437 9.45833334765625  19.1666666738281 9.18333332617187  C 19.1666666738281 8.90833332617187  18.9833333476562 8.54166665234375  18.7083333261719 8.45  L 16.325 7.16666667382813  L 19.2583333261719 5.7  C 19.35 5.60833332617188  19.4416666523437 5.60833332617188  19.4416666738281 5.51666667382812  Z M 15.3166666738281 11.6583333261719  L 17.5166666738281 12.85  L 10.4583333261719 16.425  C 10.275 16.5166666738281  10.0916666523438 16.5166666738281  9.90833332617188 16.425  L 2.85 12.85  L 5.14166667382812 11.6583333261719  L 9.35833332617188 13.7666666738281  C 9.63333332617188 13.95  9.90833332617188 14.0416666738281  10.1833333261719 14.0416666738281  C 10.4583333261719 14.0416666738281  10.825 13.95  11.1 13.7666666738281  L 15.3166666738281 11.6583333261719  Z M 15.0416666738281 7.80833332617187  L 17.5166666738281 9.18333332617188  L 15.225 10.375  L 13.85 11.0166666738281  L 10.3666666738281 12.7583333261719  C 10.1833333476563 12.85  10 12.85  9.81666667382813 12.7583333261719  L 6.33333332617187 11.0166666738281  L 4.95833332617187 10.375  L 2.66666667382812 9.18333332617187  L 5.41666667382812 7.80833332617187  L 9.35833332617188 9.825  C 9.90833332617188 10.1916666738281  10.55 10.1916666738281  11.1 9.825  L 15.0416666738281 7.80833332617187  Z " fill-rule="nonzero" fill="#ffffff" stroke="none" transform="matrix(1 0 0 1 730 10 )" />
  </g>
</svg>