<?xml version="1.0" encoding="utf-8"?>
<svg version="1.1" xmlns:xlink="http://www.w3.org/1999/xlink" width="10px" height="10px" xmlns="http://www.w3.org/2000/svg">
  <g transform="matrix(1 0 0 1 -786 -17 )">
    <path d="M 9.7740234375 8.100390625  C 9.7740234375 9.0048828125  9.037109375 9.7439453125  8.13046875 9.7439453125  L 1.8419921875 9.7439453125  C 0.9353515625 9.7439453125  0.198437500000001 9.00703125  0.198437500000001 8.100390625  L 0.198437500000001 1.2404296875  C 0.198437500000001 0.649609375000001  0.6796875 0.168359375000001  1.2705078125 0.168359375000001  L 8.13046875 0.168359375000001  C 9.037109375 0.168359375000001  9.7740234375 0.905273437500001  9.7740234375 1.8119140625  L 9.7740234375 8.100390625  Z M 1.2705078125 1.16953125  L 1.2705078125 1.1673828125  C 1.2318359375 1.1673828125  1.199609375 1.199609375  1.199609375 1.23828125  L 1.199609375 8.0982421875  C 1.199609375 8.452734375  1.4875 8.740625  1.8419921875 8.740625  L 8.13046875 8.740625  C 8.4849609375 8.740625  8.7728515625 8.452734375  8.7728515625 8.0982421875  L 8.7728515625 1.8119140625  C 8.7728515625 1.457421875  8.4849609375 1.16953125  8.13046875 1.16953125  L 1.2705078125 1.16953125  Z " fill-rule="nonzero" fill="#ffffff" stroke="none" transform="matrix(1 0 0 1 786 17 )" />
  </g>
</svg>