<?xml version="1.0" encoding="utf-8"?>
<svg version="1.1" xmlns:xlink="http://www.w3.org/1999/xlink" width="10px" height="10px" xmlns="http://www.w3.org/2000/svg">
  <g transform="matrix(1 0 0 1 -783 -13 )">
    <path d="M 9.7736328125 8.241796875  C 9.771484375 9.1462890625  9.0345703125 9.8853515625  8.1279296875 9.8853515625  L 1.8416015625 9.8853515625  C 0.9349609375 9.8853515625  0.198046874999999 9.1484375  0.198046874999999 8.241796875  L 0.198046874999999 1.3818359375  C 0.198046874999999 0.791015625  0.679296875 0.309765625  1.2701171875 0.309765625  L 8.130078125 0.309765625  C 9.03671875 0.309765625  9.7736328125 1.0466796875  9.7736328125 1.9533203125  L 9.7736328125 8.241796875  Z M 1.2701171875 1.3109375  L 1.2701171875 1.3087890625  C 1.2314453125 1.3087890625  1.19921875 1.341015625  1.19921875 1.3796875  L 1.19921875 8.2396484375  C 1.19921875 8.594140625  1.487109375 8.88203125  1.8416015625 8.88203125  L 8.130078125 8.88203125  C 8.4845703125 8.88203125  8.7724609375 8.594140625  8.7724609375 8.2396484375  L 8.7724609375 1.9533203125  C 8.7724609375 1.598828125  8.4845703125 1.3109375  8.130078125 1.3109375  L 1.2701171875 1.3109375  Z " fill-rule="nonzero" fill="#ffffff" stroke="none" transform="matrix(1 0 0 1 783 13 )" />
  </g>
</svg>