<?xml version="1.0" encoding="utf-8"?>
<svg version="1.1" xmlns:xlink="http://www.w3.org/1999/xlink" width="19px" height="20px" xmlns="http://www.w3.org/2000/svg">
  <g transform="matrix(1 0 0 1 -780 -10 )">
    <path d="M 19 17.6953776041667  C 18.9653859105603 18.6020182291667  18.241177262931 19.3389322916667  17.3501683728448 19  L 1.62027209051724 19  C 0.729263200431033 19.3389322916667  0.00505455280172332 18.6020182291667  0 17.6953776041667  L 0 1.68951822916667  C 0.00505455280172332 0.782877604166668  0.729263200431033 0.0459635416666675  1.62027209051724 0  L 17.3501683728448 0  C 18.241177262931 0.0459635416666675  18.9653859105603 0.782877604166668  19 1.68951822916667  L 19 17.6953776041667  Z M 17.3501683728448 1  L 1.62027209051724 1  C 1.27189183728448 1.04713541666667  0.988964843749999 1.33502604166667  1 1.68951822916667  L 1 17.6953776041667  C 0.988964843749999 18.0498697916667  1.27189183728448 18.3377604166667  1.62027209051724 18  L 17.3501683728448 18  C 17.6985486260776 18.3377604166667  17.9814756196121 18.0498697916667  18 17.6953776041667  L 18 1.68951822916667  C 17.9814756196121 1.33502604166667  17.6985486260776 1.04713541666667  17.3501683728448 1  Z " fill-rule="nonzero" fill="#ffffff" stroke="none" transform="matrix(1 0 0 1 780 10 )" />
  </g>
</svg>