<?xml version="1.0" encoding="utf-8"?>
<svg version="1.1" xmlns:xlink="http://www.w3.org/1999/xlink" width="15px" height="17px" xmlns="http://www.w3.org/2000/svg">
  <g transform="matrix(1 0 0 1 -821 -10 )">
    <path d="M 15 15.245297029703  C 14.90625 16.1394801980198  14.2010869565217 16.8674504950495  13.3349184782609 16.8674504950495  L 1.5835597826087 16.8674504950495  C 0.717391304347826 16.8674504950495  0.0122282608695651 16.1394801980198  0 15.245297029703  L 0 1.70210396039604  C 0.0122282608695651 0.807920792079208  0.717391304347826 0.0799504950495052  1.5835597826087 0  L 13.3349184782609 0  C 14.2010869565217 0.0799504950495052  14.90625 0.807920792079208  15 1.70210396039604  L 15 15.245297029703  Z M 1.5835597826087 1  L 1.5835597826087 1.06881188118812  C 1.24524456521739 1.06881188118812  0.968070652173913 1.35284653465347  1 1.70420792079208  L 1 15.247400990099  C 0.968070652173913 15.5966584158416  1.24320652173913 15.882797029703  1.5835597826087 15.882797029703  L 13.3349184782609 15.882797029703  C 13.6732336956522 15.882797029703  13.9504076086957 15.5987623762376  14 15.247400990099  L 14 1.70210396039604  C 13.9504076086957 1.35284653465347  13.6752717391304 1.06670792079208  13.3349184782609 1  L 1.5835597826087 1  Z " fill-rule="nonzero" fill="#ffffff" stroke="none" transform="matrix(1 0 0 1 821 10 )" />
  </g>
</svg>