<?xml version="1.0" encoding="utf-8"?>
<svg version="1.1" xmlns:xlink="http://www.w3.org/1999/xlink" width="15px" height="17px" xmlns="http://www.w3.org/2000/svg">
  <g transform="matrix(1 0 0 1 -857 -11 )">
    <path d="M 13.9796694861779 9.25600897005208  C 13.9796925405649 8.94140493359375  13.8639940655048 8.67049527994792  13.6326893554688 8.44321203125  C 13.4013154597356 8.21604204947917  13.1255024639423 8.10240043619792  12.8052042367788 8.10240043619792  L 11.7374666240986 8.10240043619792  L 9.5841189077524 8.10240043619792  L 5.13522755408654 8.10240043619792  L 2.89293242938702 8.10240043619792  L 1.82521787109375 8.10240043619792  C 1.50491964393029 8.10240043619792  1.23198930288462 8.21604204947917  1.00663440504808 8.44321203125  C 0.781210321514423 8.6704952578125  0.668486741286058 8.94140493359375  0.668486741286058 9.25600894791667  L 0.668486741286058 14.797040125  C 0.668486741286058 15.0882906549479  0.718944839242788 15.3622129388021  0.819768795072115 15.6185125091146  C 0.920592750901443 15.8749026796875  1.06297312950721 16.0992412317708  1.24686384465144 16.2914828984375  C 1.43075455979567 16.4837698541667  1.65320372596154 16.6382064869792  1.91414220252404 16.7546795078125  C 2.17517291917067 16.8712431510417  2.46583737980769 16.9294796614583  2.78615866135817 16.9294796614583  L 11.7730732346755 16.9294796614583  C 12.0933714618389 16.9294796614583  12.3869416541466 16.8712431510417  12.6539221829928 16.7546795078125  C 12.9208796574519 16.6382064869792  13.152184367488 16.4779484609375  13.3479746844952 16.27401871875  C 13.5436727614183 16.0701116432292  13.697906655649 15.8311629856771  13.8106532902644 15.5573313020833  C 13.9233768704928 15.2835222851562  13.9796694636418 14.989259125  13.9796694636418 14.6746324440104  L 13.9796694861779 9.25600897005208  Z M 8.59246047926683 11.2751693164063  C 8.59246045673077 11.8203636549479  8.23574846754808 12.2834696640625  7.73919282602164 12.4523804908854  L 7.73919282602164 14.5596091158854  C 7.73919282602164 14.78478578125  7.55334190204327 14.9673326888021  7.32408964092548 14.9673326888021  C 7.09483737980769 14.9673326888021  6.90898645582933 14.78478578125  6.90898645582933 14.5596091158854  L 6.90898647836538 12.4523804908854  C 6.41243083683894 12.2834696861979  6.05571884765625 11.8203863216146  6.05571884765625 11.2751693164063  C 6.05571884765625 10.5871131536458  6.62357999549279 10.0293473151042  7.32408966346154 10.0293473151042  C 8.02459933143029 10.0293473151042  8.59246047926683 10.5871131536458  8.59246047926683 11.2751693164063  Z M 5.13522755408654 4.97355247265625  C 5.13522755408654 4.2394461875  5.33092563100962 3.67135136588542  5.72250631009615 3.26938123046875  C 6.1139947265625 2.86732049479167  6.63001410757211 2.66635807161458  7.27072585637019 2.66635807161458  C 7.98253555438702 2.66635807161458  8.5460611703726 2.86734313932292  8.96132578125 3.26938123046875  C 9.37652120643029 3.67135136588541  9.5841189077524 4.2394461875  9.5841189077524 4.97355247265625  L 9.5841189077524 7.0536674921875  L 11.7374666240986 7.0536674921875  L 11.7374666240986 4.48414828255208  C 11.7374666240986 3.92484215104167  11.6158183368389 3.40338636458333  11.3726601111779 2.91980356770833  C 11.1293865910457 2.43613017057292  10.8031154972957 2.01080652864583  10.3938698843149 1.64381001953125  C 9.98453203125 1.27670024348958  9.51590361328125 0.988281143229167  8.98800768479567 0.7785300078125  C 8.46008870192308 0.5688015390625  7.91136841947115 0.463925971354167  7.3419391000601 0.463925971354167  C 6.70122735126202 0.463925971354167  6.11104288611779 0.5688015390625  5.57124731069712 0.7785300078125  C 5.0314517578125 0.988281121093751  4.56282333984375 1.27670024348958  4.16536203425481 1.64381001953125  C 3.76792380558894 2.01080652864583  3.45652723106971 2.43615281510417  3.23110314753606 2.91980356770833  C 3.00565600961538 3.40338636458333  2.89295548377404 3.92481950651042  2.89295548377404 4.48414828255208  L 2.8929555063101 7.05366747005208  L 5.13525060847356 7.05366747005208  L 5.13525060847356 4.97355245052083  Z " fill-rule="nonzero" fill="#ffffff" stroke="none" transform="matrix(1 0 0 1 857 11 )" />
  </g>
</svg>