<?xml version="1.0" encoding="utf-8"?>
<svg version="1.1" xmlns:xlink="http://www.w3.org/1999/xlink" width="16px" height="16px" xmlns="http://www.w3.org/2000/svg">
  <g transform="matrix(1 0 0 1 -718 -891 )">
    <path d="M 15.193849609375 14.16653125  L 9.07426171875 8.046943359375  L 15.193849609375 1.924755859375  C 15.488486328125 1.630119140625  15.488486328125 1.1503515625  15.193849609375 0.855714843749999  C 14.899212890625 0.561078124999999  14.4194453125 0.561078124999999  14.12480859375 0.855714843749999  L 8.005220703125 6.975302734375  L 1.883033203125 0.85571484375  C 1.588396484375 0.561078125  1.10862890625 0.561078125  0.813992187500001 0.85571484375  C 0.519355468750001 1.1503515625  0.519355468750001 1.630119140625  0.813992187500001 1.924755859375  L 6.9361796875 8.046943359375  L 0.813992187500001 14.16653125  C 0.519355468750001 14.46116796875  0.519355468750001 14.940935546875  0.813992187500001 15.235572265625  C 1.10862890625 15.530208984375  1.588396484375 15.530208984375  1.883033203125 15.235572265625  L 8.005220703125 9.113384765625  L 14.127408203125 15.235572265625  C 14.422044921875 15.530208984375  14.9018125 15.530208984375  15.19644921875 15.235572265625  C 15.488486328125 14.940935546875  15.488486328125 14.46116796875  15.193828125 14.16653125  Z " fill-rule="nonzero" fill="#aaaaaa" stroke="none" transform="matrix(1 0 0 1 718 891 )" />
  </g>
</svg>