<?xml version="1.0" encoding="utf-8"?>
<svg version="1.1" xmlns:xlink="http://www.w3.org/1999/xlink" width="20px" height="20px" xmlns="http://www.w3.org/2000/svg">
  <g transform="matrix(1 0 0 1 -1286 -11 )">
    <path d="M 12.749375 14.41625  L 10.833125 16.333125  L 10.833125 8.333125  L 9.16625 8.333125  L 9.16625 16.333125  L 7.249375 14.41625  L 6.0825 15.583125  L 9.999375 19.5  L 13.91625 15.583125  L 12.749375 14.41625  Z M 20 9.583125  C 20 7.16625  18.166875 5.16625  15.75 5  C 15.333125 2.166875  12.916875 0  10 0  C 7.083125 0  4.583125 2.166875  4.25 5  C 1.833125 5.166875  0 7.166875  0 9.583125  C 0 12.083125  2.083125 14.16625  4.583125 14.16625  L 5.833125 14.16625  L 5.833125 12.499375  L 4.583125 12.499375  C 2.91625 12.499375  1.66625 11.249375  1.66625 9.5825  C 1.66625 7.915625  2.91625 6.665625  4.583125 6.665625  L 4.66625 6.665625  L 5.833125 7.24875  L 5.833125 5.831875  C 5.833125 3.49875  7.66625 1.665  10 1.665  C 12.33375 1.665  14.166875 3.498125  14.166875 5.831875  L 14.166875 7.24875  L 15.33375 6.665625  L 15.416875 6.665625  C 17.08375 6.665625  18.33375 7.915625  18.33375 9.5825  C 18.33375 11.249375  17.08375 12.499375  15.416875 12.499375  L 14.166875 12.499375  L 14.166875 14.16625  L 15.416875 14.16625  C 17.916875 14.16625  20 12.083125  20 9.583125  Z " fill-rule="nonzero" fill="#ffffff" stroke="none" transform="matrix(1 0 0 1 1286 11 )" />
  </g>
</svg>