<?xml version="1.0" encoding="utf-8"?>
<svg version="1.1" xmlns:xlink="http://www.w3.org/1999/xlink" width="22px" height="6px" xmlns="http://www.w3.org/2000/svg">
  <g transform="matrix(1 0 0 1 -1326 -18 )">
    <path d="M 0 3  C 0 4.37935582531467  1.11818883029509 5.49754465560975  2.49754465560976 5.49754465560975  C 3.87690048092442 5.49754465560975  4.99508931121951 4.37935582531467  4.99508931121951 3  C 4.99508931121951 1.62064417468533  3.87690048092443 0.502455344390244  2.49754465560976 0.502455344390244  C 1.11818883029509 0.502455344390244  0 1.62064417468533  0 3  Z M 8.49172363707317 3  C 8.49172363707317 4.37935582531467  9.60991246736826 5.49754465560975  10.9892682926829 5.49754465560975  C 12.3686241179976 5.49754465560975  13.4868129482927 4.37935582531467  13.4868129482927 3  C 13.4868129482927 1.62064417468533  12.3686241179976 0.502455344390244  10.9892682926829 0.502455344390244  C 9.60991246736826 0.502455344390244  8.49172363707317 1.62064417468533  8.49172363707317 3  Z M 16.9834472741463 3  C 16.9834472741463 4.37935582531467  18.1016361044414 5.49754465560975  19.4809919297561 5.49754465560975  C 20.8603477550708 5.49754465560975  21.9785365853659 4.37935582531467  21.9785365853659 3  C 21.9785365853659 1.62064417468533  20.8603477550708 0.502455344390244  19.4809919297561 0.502455344390244  C 18.1016361044414 0.502455344390244  16.9834472741463 1.62064417468533  16.9834472741463 3  Z " fill-rule="nonzero" fill="#ffffff" stroke="none" transform="matrix(1 0 0 1 1326 18 )" />
  </g>
</svg>