<?xml version="1.0" encoding="utf-8"?>
<svg version="1.1" xmlns:xlink="http://www.w3.org/1999/xlink" width="21px" height="21px" xmlns="http://www.w3.org/2000/svg">
  <g transform="matrix(1 0 0 1 -1245 -10 )">
    <path d="M 20.9870044042969 0.763643282226563  C 21.0296553500079 0.505835363276894  20.9155565926614 0.247245859580071  20.6963738378906 0.104968151367187  C 20.4765877551158 -0.0367117633930424  20.193728239697 -0.0346508589051675  19.9760299306641 0.110216551757812  L 0.294502031249999 13.2312351445313  C 0.0913501538981291 13.3660702422991  -0.0197205510990919 13.6028861504035  0.00649568554687375 13.8452988105469  C 0.0311969166346957 14.0876407698595  0.188781102560056 14.2960667337635  0.415215404296874 14.3858847890625  L 5.54815787695312 16.4399802451172  L 7.96176925195312 20.6636361298828  C 8.07723352252488 20.8658085661863  8.29119876068918 20.991641101339  8.52400489746094 20.9942858056641  L 8.531221453125 20.9942858056641  C 8.76149533300781 20.9942858056641  8.97536792578125 20.8722603427734  9.09345709863281 20.6754450410156  L 10.456074890625 18.4035406816406  L 16.8164886503906 20.9470501201172  C 17.0007183863635 21.0212169388415  17.2087303582858 21.0072045177845  17.3813484960938 20.9089991660156  C 17.5545459345703 20.8119036357422  17.6732911523438 20.6413303769531  17.7067497509766 20.4451711611328  L 20.9870044042969 0.763643282226563  Z M 6.0349476796875 15.2210376240234  L 2.05993509667969 13.6307701728516  L 17.2639153886719 3.49412724609375  L 6.20945722851563 15.3273178652344  C 6.15106869726563 15.29254715625  6.09924067675781 15.2466236015625  6.0349476796875 15.2210376240234  Z M 8.51547623144531 18.9880820595703  L 6.68706229980469 15.7885216699219  L 6.68246994433594 15.7819611591797  L 19.1100426972656 2.48052857226563  L 8.51547623144531 18.9880820595703  Z M 19.1625267626953 3.73030559179688  L 16.5461956611328 19.4250119765625  L 10.9428646728516 17.1839419951172  C 10.8116838174085 17.1362019108174  10.6736862187895 17.1098428173125  10.5341449541016 17.1058719316406  L 19.1625267626953 3.73030559179688  Z " fill-rule="nonzero" fill="#ffffff" stroke="none" transform="matrix(1 0 0 1 1245 10 )" />
  </g>
</svg>