<?xml version="1.0" encoding="utf-8"?>
<svg version="1.1" xmlns:xlink="http://www.w3.org/1999/xlink" width="20px" height="5px" xmlns="http://www.w3.org/2000/svg">
  <g transform="matrix(1 0 0 1 -603 -10 )">
    <path d="M 4.87538407315341 3.166231640625  C 4.87538409978693 2.15465961914063  4.00954441583807 1.35985302734375  2.90478919566761 1.35985302734375  C 1.80125608132102 1.35985302734375  0.934194344815341 2.15465961914063  0.934194344815341 3.166231640625  C 0.934194344815341 4.17780366210937  1.80125608132102 4.97261025390625  2.90478919566761 4.97261025390625  C 4.0083223100142 4.97261025390625  4.87538404651989 4.17780366210937  4.87538407315341 3.166231640625  Z M 15.1227828213778 3.166231640625  C 15.1227828213778 4.17780366210937  15.9901500710227 4.9712099609375  17.0933776722301 4.9712099609375  C 18.1969107865767 4.9712099609375  19.0639725230824 4.17640336914062  19.0639725230824 3.16483134765625  C 19.0639725230824 2.15325932617187  18.1969107865767 1.35985302734375  17.0933776722301 1.35985302734375  C 15.9898445578835 1.35985302734375  15.1227828213778 2.15465961914063  15.1227828213778 3.166231640625  Z " fill-rule="nonzero" fill="#ffffff" stroke="none" transform="matrix(1 0 0 1 603 10 )" />
  </g>
</svg>