<?xml version="1.0" encoding="utf-8"?>
<svg version="1.1" xmlns:xlink="http://www.w3.org/1999/xlink" width="20px" height="19px" xmlns="http://www.w3.org/2000/svg">
  <g transform="matrix(1 0 0 1 -642 -11 )">
    <path d="M 19.8201342078996 2.69998388760081  C 19.8201342078996 1.23430014098145  18.6911189236937 0.0447010696001344  17.2952380952381 0.0395999999999992  C 16.3316294508 0.03938892846576  15.4513952407222 0.613379600835095  15.024380952381 1.5204  L 5.25980952380952 1.5204  C 4.83355701611736 0.610681766166032  3.95191828453617 0.0344306292212542  2.98634216343637 0.0344306292212542  C 1.58701040300795 0.0344306292212542  0.452627877722089 1.22553228077141  0.452627877722089 2.69483062922125  C 0.452627877722089 3.74127892886424  1.03687672325768 4.69053203784263  1.94552380952381 5.1204  L 1.94552380952381 13.56  C 1.03632256238916 13.989241787836  0.451514287061284 14.9385979169724  0.451514287061284 15.9853198133061  C 0.451514287061284 17.4539554200562  1.58538513777553 18.6445198133061  2.98408571563271 18.6445198133061  C 4.3827862934899 18.6445198133061  5.51665714420414 17.4539554200562  5.51665714420414 15.9853198133061  C 5.51665714420414 14.9531821952845  4.94784667893809 14.0142746650077  4.05752380952381 13.5768  L 4.05752380952381 5.1096  C 4.62283200377613 4.83010642546848  5.07034469816183 4.34184973440757  5.31466666666667 3.738  L 14.9535238095238 3.738  C 15.3504495097893 4.72151077535737  16.2691128492291 5.36038388760081  17.2864199221854 5.36038388760081  C 18.6857516826138 5.36038388760081  19.8201342078996 4.16928223605065  19.8201342078996 2.69998388760081  Z " fill-rule="nonzero" fill="#ffffff" stroke="none" transform="matrix(1 0 0 1 642 11 )" />
  </g>
</svg>