<?xml version="1.0" encoding="utf-8"?>
<svg version="1.1" xmlns:xlink="http://www.w3.org/1999/xlink" width="17px" height="9px" xmlns="http://www.w3.org/2000/svg">
  <g transform="matrix(1 0 0 1 -605 -13 )">
    <path d="M 16.2786770784505 7.62127100683594  C 16.2786770784505 7.85537767089843  16.1148987630208 8.01144879785156  15.8692312483724 8.01144879785156  C 15.6235637613932 8.01144879785156  15.4597854182943 7.85537769726563  15.4597854459635 7.62127100683594  C 15.4597854459635 4.50015121582031  13.2487780078125 1.84694229492187  10.0554180159505 1.14462230273437  C 9.85069510091146 1.10560453417969  9.68691678548177 0.872405244140622  9.72786135742187 0.676408974609374  C 9.76880592936198 0.480412705078123  10.013521233724 0.325248978515623  10.2191963313802 0.36426674707031  C 13.7698500169524 1.13757664436233  16.2855656747199 4.15046834363942  16.2786770784505 7.62127100683594  Z M 1.539579765625 7.62127100683594  C 1.539579765625 7.85537767089843  1.37580145019531 8.01144879785156  1.12886433105469 8.01144879785156  C 0.883196844075521 8.01144879785156  0.719418500976563 7.85537769726563  0.719418528645834 7.62127100683594  C 0.719418528645834 4.14899121972656  3.21672063151042 1.14462230273437  6.77889924804687 0.403586999999999  C 6.98362216308594 0.364569231445312  7.2292896500651 0.481622563476562  7.27023424967448 0.715729227539061  C 7.31117882161458 0.910818123046873  7.188345078125 1.14492478710937  6.94267759114583 1.18394255566406  C 3.75058720377604 1.84694232128906  1.539579765625 4.4998487578125  1.539579765625 7.62127100683594  Z " fill-rule="nonzero" fill="#ffffff" stroke="none" transform="matrix(1 0 0 1 605 13 )" />
  </g>
</svg>