<?xml version="1.0" encoding="utf-8"?>
<svg version="1.1" xmlns:xlink="http://www.w3.org/1999/xlink" width="21px" height="5px" xmlns="http://www.w3.org/2000/svg">
  <g transform="matrix(1 0 0 1 -7 -749 )">
    <path d="M 5.12158203125 2.470703125  C 5.119140625 3.66455078125  4.15234375 4.63134765625  2.95849609375 4.63134765625  C 1.7646484375 4.63134765625  0.79541015625 3.66455078125  0.79541015625 2.470703125  C 0.79541015625 1.27685546875  1.76220703125 0.310058593749998  2.95849609375 0.310058593749998  C 4.15234375 0.310058593749998  5.12158203125 1.27685546875  5.12158203125 2.470703125  Z M 12.6875 2.470703125  C 12.6875 3.66455078125  11.71826171875 4.63134765625  10.5244140625 4.63134765625  C 9.33056640625 4.63134765625  8.361328125 3.66455078125  8.361328125 2.470703125  C 8.361328125 1.27685546875  9.328125 0.310058593749998  10.5244140625 0.310058593749998  C 11.71826171875 0.310058593749998  12.6875 1.27685546875  12.6875 2.470703125  Z M 20.25341796875 2.470703125  C 20.25341796875 3.66455078125  19.28662109375 4.63134765625  18.09033203125 4.63134765625  C 16.896484375 4.63134765625  15.92724609375 3.66455078125  15.92724609375 2.470703125  C 15.92724609375 1.27685546875  16.89404296875 0.310058593749998  18.09033203125 0.310058593749998  C 19.2841796875 0.310058593749998  20.25341796875 1.27685546875  20.25341796875 2.470703125  Z " fill-rule="nonzero" fill="#333333" stroke="none" transform="matrix(1 0 0 1 7 749 )" />
  </g>
</svg>