<?xml version="1.0" encoding="utf-8"?>
<svg version="1.1" xmlns:xlink="http://www.w3.org/1999/xlink" width="20px" height="5px" xmlns="http://www.w3.org/2000/svg">
  <g transform="matrix(1 0 0 1 -603 -21 )">
    <path d="M 4.87660612571023 0.390065747070312  C 4.87660612571023 0.173300317382813  4.71895854936079 0.0287900146484343  4.48248717151989 0.0287900390625021  L 1.32984091796875 0.0287900390625021  C 1.09336954012784 0.0287900390625021  0.935721937144886 0.173300317382813  0.935721937144886 0.390065747070315  L 0.935721937144886 3.27999147949219  C 0.935721937144886 3.49675690917969  1.09336951349432 3.64126721191406  1.32984091796875 3.64126721191406  L 4.48248717151989 3.64126721191406  C 4.7189585493608 3.64126721191406  4.87660615234375 3.49675693359375  4.87660612571023 3.27999147949219  L 4.87660612571023 0.390065747070312  Z M 19.0636670099432 0.390065747070312  C 19.0639725230824 0.173300317382813  18.906324946733 0.0287900146484343  18.6695480557528 0.0287900390625021  L 15.5172073153409 0.0287900390625021  C 15.2807359375 0.0287900390625021  15.123088334517 0.173300317382813  15.123088334517 0.390065747070315  L 15.123088334517 3.27999147949219  C 15.123088334517 3.49675690917969  15.2807359108665 3.64126721191406  15.5172073153409 3.64126721191406  L 18.6695480557528 3.64126721191406  C 18.9060194335938 3.64126721191406  19.0636670365767 3.49675693359375  19.0636670099432 3.27999147949219  L 19.0636670099432 0.390065747070312  Z " fill-rule="nonzero" fill="#ffffff" stroke="none" transform="matrix(1 0 0 1 603 21 )" />
  </g>
</svg>