<?xml version="1.0" encoding="utf-8"?>
<svg version="1.1" xmlns:xlink="http://www.w3.org/1999/xlink" width="12px" height="12px" xmlns="http://www.w3.org/2000/svg">
  <g transform="matrix(1 0 0 1 -607 -21 )">
    <path d="M 0.302000000000021 11.41  C 0.371999999999957 11.508  8.67399999999998 9.534  8.67399999999998 9.534  C 8.87 9.478  9.00999999999999 9.338  9.06600000000003 9.142  L 10.144 5.32  C 10.2 5.124  10.144 4.914  10.004 4.774  L 7.04999999999995 1.82  C 6.90999999999997 1.68  6.70000000000005 1.624  6.50400000000002 1.68  L 2.68200000000002 2.744  C 2.48599999999999 2.8  2.346 2.954  2.28999999999996 3.136  L 0.217999999999961 10.934  L 0.217999999999961 10.948  C 0.217999999999961 10.976  0.203999999999951 10.99  0.203999999999951 11.018  L 0.203999999999951 11.144  C 0.203999999999951 11.172  0.217999999999961 11.2  0.217999999999961 11.228  L 0.217999999999961 11.242  C 0.231999999999971 11.27  0.231999999999971 11.284  0.245999999999981 11.312  C 0.259999999999991 11.312  0.259999999999991 11.326  0.259999999999991 11.326  C 0.274000000000001 11.354  0.288000000000011 11.368  0.302000000000021 11.396  L 0.302000000000021 11.41  Z M 1.84199999999998 9.198  L 3.298 3.738  L 6.50400000000002 2.842  L 8.99599999999998 5.334  L 8.08600000000001 8.54  L 2.62599999999998 9.996  L 4.93600000000004 7.686  C 5.34199999999998 7.798  5.78999999999996 7.7  6.09799999999996 7.392  C 6.55999999999995 6.93  6.55999999999995 6.188  6.09799999999996 5.726  C 5.87752501642376 5.50422795775042  5.57771721587801 5.37952810603191  5.26499999999999 5.37952810603191  C 4.95228278412196 5.37952810603191  4.65247498357621 5.50422795775042  4.43200000000002 5.726  C 4.11000000000001 6.048  4.01199999999994 6.496  4.13800000000003 6.888  L 1.84199999999998 9.198  Z M 7.596 1.442  L 10.396 4.228  C 10.508 4.34  10.648 4.396  10.788 4.396  C 10.928 4.396  11.068 4.34  11.1799999999999 4.228  C 11.404 4.004  11.404 3.654  11.1799999999999 3.43  L 8.38 0.630000000000003  C 8.16999999999996 0.420000000000002  7.82000000000005 0.420000000000002  7.596 0.643999999999998  C 7.37199999999996 0.868000000000002  7.37199999999996 1.218  7.596 1.442  Z " fill-rule="nonzero" fill="#ffffff" stroke="none" transform="matrix(1 0 0 1 607 21 )" />
  </g>
</svg>