<?xml version="1.0" encoding="utf-8"?>
<svg version="1.1" xmlns:xlink="http://www.w3.org/1999/xlink" width="30px" height="30px" xmlns="http://www.w3.org/2000/svg">
  <defs>
    <mask fill="white" id="clip1">
      <path d="M 0 10  C 0 4.39999999999998  4.40000000000009 0  10 0  C 15.5999999999999 0  20 4.39999999999998  20 10  C 20 13.8242376613744  17.9480519056451 17.0888531151975  14.8632644418208 18.774737636584  C 13.4308614674317 19.5575682306621  11.7757623386256 20  10 20  C 4.40000000000009 20  0 15.6  0 10  Z " fill-rule="evenodd" />
    </mask>
    <filter x="1407px" y="448px" width="30px" height="30px" filterUnits="userSpaceOnUse" id="filter2">
      <feOffset dx="1" dy="1" in="SourceAlpha" result="shadowOffsetInner" />
      <feGaussianBlur stdDeviation="2.5" in="shadowOffsetInner" result="shadowGaussian" />
      <feComposite in2="shadowGaussian" operator="atop" in="SourceAlpha" result="shadowComposite" />
      <feColorMatrix type="matrix" values="0 0 0 0 0  0 0 0 0 0  0 0 0 0 0  0 0 0 0.698039215686274 0  " in="shadowComposite" />
    </filter>
    <g id="widget3">
      <path d="M 0 10  C 0 4.39999999999998  4.40000000000009 0  10 0  C 15.5999999999999 0  20 4.39999999999998  20 10  C 20 13.8242376613744  17.9480519056451 17.0888531151975  14.8632644418208 18.774737636584  C 13.4308614674317 19.5575682306621  11.7757623386256 20  10 20  C 4.40000000000009 20  0 15.6  0 10  Z " fill-rule="nonzero" fill="#009dd9" stroke="none" transform="matrix(1 0 0 1 1411 452 )" />
      <path d="M 0 10  C 0 4.39999999999998  4.40000000000009 0  10 0  C 15.5999999999999 0  20 4.39999999999998  20 10  C 20 13.8242376613744  17.9480519056451 17.0888531151975  14.8632644418208 18.774737636584  C 13.4308614674317 19.5575682306621  11.7757623386256 20  10 20  C 4.40000000000009 20  0 15.6  0 10  Z " stroke-width="2" stroke="#ffffff" fill="none" transform="matrix(1 0 0 1 1411 452 )" mask="url(#clip1)" />
    </g>
  </defs>
  <g transform="matrix(1 0 0 1 -1407 -448 )">
    <use xlink:href="#widget3" filter="url(#filter2)" />
    <use xlink:href="#widget3" />
  </g>
</svg>