<?xml version="1.0" encoding="utf-8"?>
<svg version="1.1" xmlns:xlink="http://www.w3.org/1999/xlink" width="18px" height="20px" xmlns="http://www.w3.org/2000/svg">
  <g transform="matrix(1 0 0 1 -969 -83 )">
    <path d="M 16.9453125 16.16640625  C 17.49140625 17.18359375  17.08359375 18.53828125  15.99375 19.1125  C 14.90390625 19.6890625  13.57734375 19.28125  12.9984375 18.23125  C 12.55546875 17.41796875  12.69140625 16.403125  13.2703125 15.75859375  L 12.41953125 14.1671875  C 11.9765625 14.303125  11.53359375 14.37109375  11.0578125 14.37109375  C 8.9484375 14.37109375  7.21171875 12.88046875  6.871875 10.91875  L 5.10234375 10.91875  C 4.7953125 11.76484375  3.9796875 12.37421875  3.02578125 12.37421875  C 1.8 12.37421875  0.81328125 11.3921875  0.81328125 10.1734375  C 0.81328125 8.9546875  1.8 7.97265625  3.02578125 7.97265625  C 3.9796875 7.97265625  4.7953125 8.54921875  5.10234375 9.3953125  L 6.90703125 9.3953125  C 7.28203125 7.46640625  9.01640625 6.04375  11.09296875 6.04375  C 11.4328125 6.04375  11.77265625 6.0765625  12.0796875 6.14453125  L 12.79453125 4.45234375  C 12.11484375 3.84296875  11.87578125 2.8609375  12.25078125 1.98203125  C 12.7265625 0.864062500000003  14.0203125 0.322656250000003  15.14296875 0.796093750000003  C 16.265625 1.26953125  16.81171875 2.55625  16.33359375 3.67421875  C 15.95859375 4.55546875  15.1078125 5.06171875  14.22421875 5.02890625  L 13.47421875 6.7890625  C 14.596875 7.534375  15.346875 8.82109375  15.346875 10.24140625  C 15.346875 11.528125  14.73515625 12.67890625  13.8140625 13.45703125  L 14.66484375 15.0484375  C 15.55078125 14.9125  16.46953125 15.353125  16.9453125 16.16640625  Z " fill-rule="nonzero" fill="#000000" stroke="none" transform="matrix(1 0 0 1 969 83 )" />
  </g>
</svg>