<?xml version="1.0" encoding="utf-8"?>
<svg version="1.1" xmlns:xlink="http://www.w3.org/1999/xlink" width="8px" height="8px" xmlns="http://www.w3.org/2000/svg">
  <g transform="matrix(1 0 0 1 -1590 -83 )">
    <path d="M 7.5969248046875 7.083265625  L 4.537130859375 4.0234716796875  L 7.5969248046875 0.962377929687499  C 7.7442431640625 0.8150595703125  7.7442431640625 0.57517578125  7.5969248046875 0.427857421875  C 7.4496064453125 0.280539062499999  7.20972265625 0.280539062499999  7.062404296875 0.427857421875  L 4.0026103515625 3.4876513671875  L 0.941516601562501 0.427857421875  C 0.794198242187501 0.2805390625  0.554314453125 0.2805390625  0.406996093750001 0.427857421875  C 0.259677734375001 0.57517578125  0.259677734375001 0.8150595703125  0.406996093750001 0.9623779296875  L 3.46808984375 4.0234716796875  L 0.406996093750001 7.083265625  C 0.259677734375001 7.230583984375  0.259677734375001 7.4704677734375  0.406996093750001 7.6177861328125  C 0.554314453125 7.7651044921875  0.794198242187501 7.7651044921875  0.941516601562501 7.6177861328125  L 4.0026103515625 4.5566923828125  L 7.0637041015625 7.6177861328125  C 7.2110224609375 7.7651044921875  7.45090625 7.7651044921875  7.598224609375 7.6177861328125  C 7.7442431640625 7.4704677734375  7.7442431640625 7.230583984375  7.5969140625 7.083265625  Z " fill-rule="nonzero" fill="#aaaaaa" stroke="none" transform="matrix(1 0 0 1 1590 83 )" />
  </g>
</svg>