<?xml version="1.0" encoding="utf-8"?>
<svg version="1.1" xmlns:xlink="http://www.w3.org/1999/xlink" width="13px" height="20px" xmlns="http://www.w3.org/2000/svg">
  <g transform="matrix(1 0 0 1 -560 -9 )">
    <path d="M 1.6193205180921 0.319126674107144  L 12.3114463404605 11.4812360491071  C 12.5265984786184 11.6985212053571  12.5757092927632 11.9499860491071  12.4587787828947 12.2331891741071  C 12.3395096628289 12.5237165178571  12.1360505756579 12.6677594866071  11.8413856907895 12.6677594866071  L 7.85171669407895 12.6677594866071  L 9.95178865131579 17.8557477678571  C 10.0219469572368 18.0364118303571  10.0219469572368 18.2146344866071  9.95178865131579 18.3904157366071  C 9.88163034539473 18.5637555803571  9.76236122532895 18.6931501116071  9.59631990131579 18.7712751116071  L 7.74647923519736 19.5891462053571  C 7.5734220805921 19.6623883928571  7.40270353618421 19.6623883928571  7.23432360197368 19.5891462053571  C 7.06828227796052 19.5159040178571  6.9443359375 19.3913922991071  6.86950041118421 19.2180524553571  L 4.87466591282894 14.2912946428571  L 1.6193205180921 17.6970563616071  C 1.48835834703947 17.8337751116071  1.32933285361842 17.9045758928571  1.14925986842105 17.9045758928571  C 1.06506990131578 17.9045758928571  0.98321854440789 17.8850446428571  0.899028577302628 17.8484235491071  C 0.620733963815786 17.7239118303571  0.482755962171048 17.5115094866071  0.482755962171048 17.2038922991071  L 0.482755962171048 0.812290736607143  C 0.482755962171048 0.507114955357143  0.620733963815785 0.292271205357143  0.899028577302628 0.167759486607143  C 0.983218544407891 0.131138392857143  1.06506990131579 0.111607142857143  1.14925986842105 0.111607142857143  C 1.33868729440789 0.111607142857143  1.49303556743421 0.179966517857143  1.6193205180921 0.319126674107144  Z " fill-rule="nonzero" fill="#ffffff" stroke="none" transform="matrix(1 0 0 1 560 9 )" />
  </g>
</svg>