<?xml version="1.0" encoding="utf-8"?>
<svg version="1.1" xmlns:xlink="http://www.w3.org/1999/xlink" width="11px" height="11px" xmlns="http://www.w3.org/2000/svg">
  <g transform="matrix(1 0 0 1 -1766 -1869 )">
    <path d="M 10.54765625 5.241015625  C 10.61748046875 5.3146484375  10.654296875 5.39970703125  10.654296875 5.5  C 10.654296875 5.5990234375  10.61748046875 5.68662109375  10.5451171875 5.758984375  L 9.0724609375 7.23291015625  C 9.00009765625 7.3052734375  8.9125 7.34208984375  8.8134765625 7.34208984375  C 8.714453125 7.34208984375  8.62685546875 7.3052734375  8.5544921875 7.23291015625  C 8.48212890625 7.160546875  8.4453125 7.07421875  8.4453125 6.97392578125  L 8.4453125 6.23759765625  L 6.236328125 6.23759765625  L 6.236328125 8.44658203125  L 6.97265625 8.44658203125  C 7.0716796875 8.44658203125  7.15927734375 8.4833984375  7.231640625 8.55576171875  C 7.30400390625 8.628125  7.3408203125 8.71572265625  7.3408203125 8.81474609375  C 7.3408203125 8.91376953125  7.30400390625 9.0013671875  7.231640625 9.07373046875  L 5.75771484375 10.54638671875  C 5.6853515625 10.61875  5.59775390625 10.65556640625  5.49873046875 10.65556640625  C 5.39970703125 10.65556640625  5.312109375 10.61875  5.23974609375 10.54638671875  L 3.76708984375 9.07373046875  C 3.6947265625 9.0013671875  3.65791015625 8.9150390625  3.65791015625 8.81474609375  C 3.65791015625 8.71572265625  3.6947265625 8.628125  3.76708984375 8.55576171875  C 3.839453125 8.4833984375  3.92578125 8.44658203125  4.02607421875 8.44658203125  L 4.76240234375 8.44658203125  L 4.76240234375 6.236328125  L 2.5546875 6.236328125  L 2.5546875 6.97265625  C 2.5546875 7.0716796875  2.51787109375 7.15927734375  2.4455078125 7.231640625  C 2.37314453125 7.30400390625  2.285546875 7.3408203125  2.1865234375 7.3408203125  C 2.0875 7.3408203125  1.99990234375 7.30400390625  1.9275390625 7.231640625  L 0.4548828125 5.75771484375  C 0.38251953125 5.6853515625  0.345703125 5.5990234375  0.345703125 5.49873046875  C 0.345703125 5.39970703125  0.38251953125 5.312109375  0.4548828125 5.23974609375  L 1.9275390625 3.76708984375  C 1.99990234375 3.6947265625  2.08623046875 3.65791015625  2.1865234375 3.65791015625  C 2.285546875 3.65791015625  2.37314453125 3.6947265625  2.4455078125 3.76708984375  C 2.51787109375 3.839453125  2.5546875 3.92705078125  2.5546875 4.02607421875  L 2.5546875 4.76240234375  L 4.763671875 4.76240234375  L 4.763671875 2.5546875  L 4.02734375 2.5546875  C 3.9283203125 2.5546875  3.84072265625 2.51787109375  3.768359375 2.4455078125  C 3.69599609375 2.37314453125  3.6591796875 2.28681640625  3.6591796875 2.1865234375  C 3.6591796875 2.0875  3.69599609375 1.99990234375  3.768359375 1.9275390625  L 5.241015625 0.4548828125  C 5.31337890625 0.38251953125  5.39970703125 0.345703125  5.5 0.345703125  C 5.5990234375 0.345703125  5.68662109375 0.38251953125  5.758984375 0.4548828125  L 7.231640625 1.9275390625  C 7.30400390625 1.99990234375  7.3408203125 2.0875  7.3408203125 2.1865234375  C 7.3408203125 2.285546875  7.30400390625 2.37314453125  7.231640625 2.4455078125  C 7.15927734375 2.51787109375  7.0716796875 2.5546875  6.97265625 2.5546875  L 6.236328125 2.5546875  L 6.236328125 4.763671875  L 8.4453125 4.763671875  L 8.4453125 4.02734375  C 8.4453125 3.9283203125  8.48212890625 3.84072265625  8.5544921875 3.768359375  C 8.62685546875 3.69599609375  8.71318359375 3.6591796875  8.8134765625 3.6591796875  C 8.9125 3.6591796875  9.00009765625 3.69599609375  9.0724609375 3.768359375  L 10.54765625 5.241015625  Z " fill-rule="nonzero" fill="#000000" stroke="none" transform="matrix(1 0 0 1 1766 1869 )" />
  </g>
</svg>