<svg class="icon" viewBox="0 0 1024 1024" version="1.1" xmlns="http://www.w3.org/2000/svg" p-id="18685" height="128" width="128"><path d="M653.093103 193.539519c0 21.113402 17.594502 35.189003 38.707903 31.670103 21.113402 0 35.189003-17.594502 31.670103-38.707904 0-17.594502-17.594502-31.670103-35.189003-31.670103-21.113402 0-35.189003 17.594502-35.189003 38.707904z m0 0l-214.652921 492.646048h3.5189c21.113402 0 35.189003-21.113402 35.189003-42.226804 0-17.594502-17.594502-35.189003-35.189003-35.189004h-316.701031v-228.728522h668.591065v77.415808c0 21.113402 14.075601 35.189003 35.189004 35.189003s35.189003-14.075601 35.189003-35.189003v-380.041237c3.5189-38.707904-24.632302-70.378007-63.340206-77.415808h-686.185567c-38.707904 3.5189-63.340206 38.707904-63.340206 77.415808v833.979381c-3.5189 38.707904 24.632302 70.378007 63.340206 73.896907h327.257732c21.113402 0 35.189003-21.113402 35.189003-42.226804 0-17.594502-17.594502-35.189003-35.189003-35.189003h-285.030928c-17.594502-3.5189-31.670103-17.594502-31.670103-38.707904v-190.020619h313.182131l214.652921-485.608247z m-527.835052-77.415808c-3.5189-17.594502 10.556701-35.189003 31.670103-38.707903h608.76976c17.594502 3.5189 31.670103 17.594502 31.670103 38.707903v190.020619h-668.591066v-190.020619h-3.5189zM790.330216 826.941581h84.453608v-77.415808h87.972509v-70.378007h-87.972509V601.731959h-84.453608v77.415807h-242.804124v70.378007h242.804124v77.415808z m-66.859107-38.707904h-84.453608v77.415808h-91.491409v70.378006h91.491409v87.972509h84.453608v-77.415808h246.323024v-70.378006h-246.323024v-87.972509z" p-id="18686"></path></svg>