<?xml version="1.0" encoding="utf-8"?>
<svg version="1.1" xmlns:xlink="http://www.w3.org/1999/xlink" width="24px" height="23px" xmlns="http://www.w3.org/2000/svg">
  <g transform="matrix(1 0 0 1 -1584 -1064 )">
    <path d="M 1596 1064  C 1602.72 1064  1608 1069.06  1608 1075.5  C 1608 1081.94  1602.72 1087  1596 1087  C 1589.28 1087  1584 1081.94  1584 1075.5  C 1584 1069.06  1589.28 1064  1596 1064  Z " fill-rule="nonzero" fill="#ffffff" stroke="none" />
    <path d="M 1596 1064.5  C 1602.44 1064.5  1607.5 1069.34  1607.5 1075.5  C 1607.5 1081.66  1602.44 1086.5  1596 1086.5  C 1589.56 1086.5  1584.5 1081.66  1584.5 1075.5  C 1584.5 1069.34  1589.56 1064.5  1596 1064.5  Z " stroke-width="1" stroke="#797979" fill="none" />
  </g>
</svg>