<?xml version="1.0" encoding="utf-8"?>
<svg version="1.1" xmlns:xlink="http://www.w3.org/1999/xlink" width="26px" height="26px" xmlns="http://www.w3.org/2000/svg">
  <g transform="matrix(1 0 0 1 -2663 -1009 )">
    <path d="M 13.6529017857143 4.40653153153153  C 13.836681547619 4.22109609609609  13.9285714285714 4.0015015015015  13.9285714285714 3.74774774774775  C 13.9285714285714 3.49399399399399  13.836681547619 3.2743993993994  13.6529017857143 3.08896396396396  C 13.4691220238095 2.90352852852853  13.2514880952381 2.81081081081081  13 2.81081081081081  C 12.7485119047619 2.81081081081081  12.5308779761905 2.90352852852853  12.3470982142857 3.08896396396396  C 12.163318452381 3.2743993993994  12.0714285714286 3.49399399399399  12.0714285714286 3.74774774774775  C 12.0714285714286 4.0015015015015  12.163318452381 4.22109609609609  12.3470982142857 4.40653153153153  C 12.5308779761905 4.59196696696696  12.7485119047619 4.68468468468469  13 4.68468468468469  C 13.2514880952381 4.68468468468469  13.4691220238095 4.59196696696696  13.6529017857143 4.40653153153153  Z M 25.8694196428571 16.9966216216216  C 25.9564732142857 17.0844594594595  26 17.1966966966967  26 17.3333333333333  L 26 22.4864864864865  C 26 22.7012012012012  25.9032738095238 22.8475975975976  25.7098214285714 22.9256756756757  C 25.6324404761905 22.9451951951952  25.5744047619048 22.954954954955  25.5357142857143 22.954954954955  C 25.4196428571429 22.954954954955  25.3084077380952 22.911036036036  25.2020089285714 22.8231981981982  L 23.8526785714286 21.4617117117117  C 22.7016369047619 22.8573573573574  21.1612723214286 23.9626501501502  19.2315848214286 24.7775900900901  C 17.3018973214286 25.59253003003  15.2247023809524 26  13 26  C 10.7752976190476 26  8.69810267857143 25.59253003003  6.76841517857143 24.7775900900901  C 4.83872767857143 23.9626501501502  3.2983630952381 22.8573573573574  2.14732142857143 21.4617117117117  L 0.797991071428571 22.8231981981982  C 0.7109375 22.911036036036  0.599702380952381 22.954954954955  0.464285714285714 22.954954954955  C 0.425595238095238 22.954954954955  0.367559523809524 22.9451951951952  0.290178571428571 22.9256756756757  C 0.0967261904761905 22.8475975975976  0 22.7012012012012  0 22.4864864864865  L 0 17.3333333333333  C 0 17.1966966966967  0.0435267857142857 17.0844594594595  0.130580357142857 16.9966216216216  C 0.217633928571429 16.9087837837838  0.328869047619048 16.8648648648649  0.464285714285714 16.8648648648649  L 5.57142857142857 16.8648648648649  C 5.78422619047619 16.8648648648649  5.92931547619048 16.9624624624625  6.00669642857143 17.1576576576577  C 6.08407738095238 17.3430930930931  6.05022321428571 17.5138888888889  5.90513392857143 17.670045045045  L 4.45424107142857 19.134009009009  C 5.10230654761905 20.0221471471471  6.01878720238095 20.7712087087087  7.20368303571429 21.3811936936937  C 8.38857886904762 21.9911786786787  9.70163690476191 22.3937687687688  11.1428571428571 22.588963963964  L 11.1428571428571 13.1171171171171  L 8.35714285714286 13.1171171171171  C 8.10565476190476 13.1171171171171  7.88802083333333 13.0243993993994  7.70424107142857 12.838963963964  C 7.52046130952381 12.6535285285285  7.42857142857143 12.4339339339339  7.42857142857143 12.1801801801802  L 7.42857142857143 10.3063063063063  C 7.42857142857143 10.0525525525525  7.52046130952381 9.83295795795796  7.70424107142857 9.64752252252252  C 7.88802083333333 9.46208708708708  8.10565476190476 9.36936936936937  8.35714285714286 9.36936936936937  L 11.1428571428571 9.36936936936937  L 11.1428571428571 6.98310810810811  C 10.5818452380952 6.65127627627627  10.132068452381 6.19988738738739  9.79352678571429 5.62894144144144  C 9.45498511904762 5.0579954954955  9.28571428571429 4.43093093093093  9.28571428571429 3.74774774774775  C 9.28571428571429 2.71321321321321  9.6484375 1.82995495495495  10.3738839285714 1.09797297297297  C 11.0993303571429 0.365990990990991  11.9747023809524 0  13 0  C 14.0252976190476 0  14.9006696428571 0.365990990990991  15.6261160714286 1.09797297297297  C 16.3515625 1.82995495495495  16.7142857142857 2.71321321321321  16.7142857142857 3.74774774774775  C 16.7142857142857 4.43093093093093  16.5450148809524 5.0579954954955  16.2064732142857 5.62894144144144  C 15.867931547619 6.19988738738739  15.4181547619048 6.65127627627627  14.8571428571429 6.98310810810811  L 14.8571428571429 9.36936936936937  L 17.6428571428571 9.36936936936937  C 17.8943452380952 9.36936936936937  18.1119791666667 9.46208708708708  18.2957589285714 9.64752252252252  C 18.4795386904762 9.83295795795796  18.5714285714286 10.0525525525525  18.5714285714286 10.3063063063063  L 18.5714285714286 12.1801801801802  C 18.5714285714286 12.4339339339339  18.4795386904762 12.6535285285285  18.2957589285714 12.838963963964  C 18.1119791666667 13.0243993993994  17.8943452380952 13.1171171171171  17.6428571428571 13.1171171171171  L 14.8571428571429 13.1171171171171  L 14.8571428571429 22.588963963964  C 16.2983630952381 22.3937687687688  17.6114211309524 21.9911786786787  18.7963169642857 21.3811936936937  C 19.981212797619 20.7712087087087  20.897693452381 20.0221471471471  21.5457589285714 19.134009009009  L 20.0948660714286 17.670045045045  C 19.9497767857143 17.5138888888889  19.9159226190476 17.3430930930931  19.9933035714286 17.1576576576577  C 20.0706845238095 16.9624624624625  20.2157738095238 16.8648648648649  20.4285714285714 16.8648648648649  L 25.5357142857143 16.8648648648649  C 25.671130952381 16.8648648648649  25.7823660714286 16.9087837837838  25.8694196428571 16.9966216216216  Z " fill-rule="nonzero" fill="#000000" stroke="none" transform="matrix(1 0 0 1 2663 1009 )" />
  </g>
</svg>