<?xml version="1.0" encoding="utf-8"?>
<svg version="1.1" xmlns:xlink="http://www.w3.org/1999/xlink" width="24px" height="23px" xmlns="http://www.w3.org/2000/svg">
  <g transform="matrix(1 0 0 1 -2782 -895 )">
    <path d="M 2794 895  C 2800.72 895  2806 900.06  2806 906.5  C 2806 912.94  2800.72 918  2794 918  C 2787.28 918  2782 912.94  2782 906.5  C 2782 900.06  2787.28 895  2794 895  Z " fill-rule="nonzero" fill="#ffffff" stroke="none" />
    <path d="M 2794 895.5  C 2800.44 895.5  2805.5 900.34  2805.5 906.5  C 2805.5 912.66  2800.44 917.5  2794 917.5  C 2787.56 917.5  2782.5 912.66  2782.5 906.5  C 2782.5 900.34  2787.56 895.5  2794 895.5  Z " stroke-width="1" stroke="#797979" fill="none" />
  </g>
</svg>