<?xml version="1.0" encoding="utf-8"?>
<svg version="1.1" xmlns:xlink="http://www.w3.org/1999/xlink" width="20px" height="20px" xmlns="http://www.w3.org/2000/svg">
  <g transform="matrix(1 0 0 1 -1325 -320 )">
    <path d="M 19.493847826087 1.33563043478261  C 19.4938260869565 0.877021739130435  19.1178043478261 0.500978260869565  18.6582608695652 0.500978260869565  L 1.33702173913043 0.500978260869565  C 0.877478260869565 0.500978260869565  0.501413043478261 0.877021739130435  0.501413043478261 1.33563043478261  L 0.501413043478261 18.6577826086957  C 0.501413043478261 19.1182826086957  0.877478260869565 19.4943043478261  1.33702173913043 19.4943043478261  L 18.6582608695652 19.4943043478261  C 19.1178260869565 19.4943043478261  19.493847826087 19.1182608695652  19.493847826087 18.6577826086957  L 19.493847826087 1.33563043478261  Z M 6.23165217391304 11.6333695652174  L 2.95736956521739 11.6333695652174  L 2.95736956521739 8.36004347826087  L 6.23167391304348 8.36004347826087  L 6.23167391304348 11.6333695652174  Z M 11.7168043478261 8.36004347826087  L 11.7168043478261 11.6333695652174  L 8.44247826086957 11.6333695652174  L 8.44247826086957 8.36004347826087  L 11.7168043478261 8.36004347826087  Z M 17.2019782608696 11.6333695652174  L 13.9276304347826 11.6333695652174  L 13.9276304347826 8.36004347826087  L 17.2019565217391 8.36004347826087  L 17.2019565217391 11.6333695652174  Z " fill-rule="nonzero" fill="#555555" stroke="none" transform="matrix(1 0 0 1 1325 320 )" />
  </g>
</svg>