<?xml version="1.0" encoding="utf-8"?>
<svg version="1.1" xmlns:xlink="http://www.w3.org/1999/xlink" width="9px" height="9px" xmlns="http://www.w3.org/2000/svg">
  <g transform="matrix(1 0 0 1 -947 -251 )">
    <path d="M 951.5 251  C 954.02 251  956 252.98  956 255.5  C 956 258.02  954.02 260  951.5 260  C 948.98 260  947 258.02  947 255.5  C 947 252.98  948.98 251  951.5 251  Z " fill-rule="nonzero" fill="#95f204" stroke="none" />
    <path d="M 951.5 251.5  C 953.74 251.5  955.5 253.26  955.5 255.5  C 955.5 257.74  953.74 259.5  951.5 259.5  C 949.26 259.5  947.5 257.74  947.5 255.5  C 947.5 253.26  949.26 251.5  951.5 251.5  Z " stroke-width="1" stroke="#797979" fill="none" />
  </g>
</svg>