<?xml version="1.0" encoding="utf-8"?>
<svg version="1.1" xmlns:xlink="http://www.w3.org/1999/xlink" width="30px" height="30px" xmlns="http://www.w3.org/2000/svg">
  <g transform="matrix(1 0 0 1 -840 -196 )">
    <path d="M 15 30  C 23.2840908984375 30  30 23.2840908984375  30 15  C 30 6.7159091015625  23.2840908984375 0  15 0  C 6.7159091015625 0  0 6.7159091015625  0 15  C 0 23.2840908984375  6.7159091015625 30  15 30  Z M 20.4545454492187 15  C 20.4545454492187 13.4931818261719  21.675 12.2727272753906  23.1818181738281 12.2727272753906  C 24.6872727246094 12.2727272753906  25.9090908984375 13.4945454492188  25.9090908984375 15  C 25.9090908984375 16.5054545507812  24.6872727246094 17.7272727246094  23.1818181738281 17.7272727246094  C 21.675 17.7272727246094  20.4545454492187 16.5068181738281  20.4545454492187 15  Z M 9.54545455078125 15  C 9.54545455078125 16.5054545507812  8.32363637695313 17.7272727246094  6.81818182617187 17.7272727246094  C 5.31136365234375 17.7272727246094  4.0909091015625 16.5068181738281  4.0909091015625 15  C 4.0909091015625 13.4931818261719  5.31136365234375 12.2727272753906  6.81818182617188 12.2727272753906  C 8.32363637695313 12.2727272753906  9.54545455078125 13.4945454492188  9.54545455078125 15  Z M 15 17.7272727246094  C 13.4931818261719 17.7272727246094  12.2727272753906 16.5068181738281  12.2727272753906 15  C 12.2727272753906 13.4931818261719  13.4931818261719 12.2727272753906  15 12.2727272753906  C 16.5054545507812 12.2727272753906  17.7272727246094 13.4945454492188  17.7272727246094 15  C 17.7272727246094 16.5054545507812  16.5054545507812 17.7272727246094  15 17.7272727246094  Z " fill-rule="nonzero" fill="#7f7f7f" stroke="none" transform="matrix(1 0 0 1 840 196 )" />
  </g>
</svg>