<?xml version="1.0" encoding="utf-8"?>
<svg version="1.1" xmlns:xlink="http://www.w3.org/1999/xlink" width="26px" height="26px" xmlns="http://www.w3.org/2000/svg">
  <g transform="matrix(1 0 0 1 -479 -87 )">
    <path d="M 21.4462933984375 11.1705803417969  C 21.4462933984375 16.8819480273437  16.8235476367188 21.5286175878906  11.1415300292969 21.5286175878906  C 5.45951245117188 21.5286175878906  0.83676666015625 16.8819779980469  0.83676666015625 11.1706103125  C 0.83676666015625 5.45924262695313  5.45951245117188 0.81257306640625  11.1415300292969 0.81257306640625  C 16.8235476074219 0.81257306640625  21.4462933984375 5.45921265625  21.4462933984375 11.1705803417969  Z M 20.0009133789063 11.1705803417969  C 20.0009133789063 6.26020958007813  16.0266879003906 2.265418046875  11.1415300292969 2.265418046875  C 6.25640215820312 2.265418046875  2.2821466796875 6.26020958007813  2.2821466796875 11.1705803417969  C 2.2821466796875 16.0809511035156  6.25637215820312 20.0757426367188  11.1415300292969 20.0757426367188  C 16.0266879003906 20.0757426367188  20.0009133789063 16.0809511035156  20.0009133789063 11.1705803417969  Z M 25.1632033398437 23.9896190429688  L 23.952384296875 25.1874269335938  L 17.3643509570312 18.700694921875  L 18.5751700292969 17.50288703125  L 25.1632033398437 23.9896190429688  Z " fill-rule="nonzero" fill="#aaaaaa" stroke="none" transform="matrix(1 0 0 1 479 87 )" />
  </g>
</svg>