<?xml version="1.0" encoding="utf-8"?>
<svg version="1.1" xmlns:xlink="http://www.w3.org/1999/xlink" width="24px" height="28px" xmlns="http://www.w3.org/2000/svg">
  <g transform="matrix(1 0 0 1 -1247 -16 )">
    <path d="M 2.372375 20.125  L 3.25 20.125  L 3.25 11.375  C 3.25 7.14175  6.2565 3.611125  10.25 2.8  L 10.25 1.75  C 10.25 0.783125  11.033125 0  12 0  C 12.966875 0  13.75 0.783125  13.75 1.75  L 13.75 2.8  C 17.7435 3.611125  20.75 7.14175  20.75 11.375  L 20.75 20.125  L 21.627625 20.125  C 22.59275 20.125  23.375 20.902  23.375 21.875  C 23.375 22.841875  22.591875 23.625  21.627625 23.625  L 2.372375 23.625  C 1.40725 23.625  0.625 22.848  0.625 21.875  C 0.625 20.908125  1.408125 20.125  2.372375 20.125  Z M 9.375 25.375  L 14.625 25.375  C 14.625 26.824875  13.449875 28  12 28  C 10.550125 28  9.375 26.824875  9.375 25.375  Z " fill-rule="nonzero" fill="#aaaaaa" stroke="none" transform="matrix(1 0 0 1 1247 16 )" />
  </g>
</svg>