<?xml version="1.0" encoding="utf-8"?>
<svg version="1.1" xmlns:xlink="http://www.w3.org/1999/xlink" width="12px" height="7px" xmlns="http://www.w3.org/2000/svg">
  <g transform="matrix(1 0 0 1 -1269 -97 )">
    <path d="M 11.1625 0.837499999999999  C 11.325 1.0375  11.3 1.35  11.1 1.55  L 6 6.65  C 5.9 6.75  5.775 6.8  5.65 6.8  C 5.525 6.8  5.3875 6.75  5.3 6.65  L 0.1875 1.55  C 0 1.3625  -0.0375000000000001 1.0375  0.15 0.837499999999999  C 0.3375 0.624999999999999  0.675 0.624999999999999  0.875 0.824999999999999  L 5.65 5.6  C 5.65 5.6  5.65 5.6  5.6625 5.6  L 10.4375 0.824999999999999  C 10.6375 0.624999999999999  10.9625 0.624999999999999  11.1625 0.837499999999999  Z " fill-rule="nonzero" fill="#333333" stroke="none" transform="matrix(1 0 0 1 1269 97 )" />
  </g>
</svg>