<?xml version="1.0" encoding="utf-8"?>
<svg version="1.1" xmlns:xlink="http://www.w3.org/1999/xlink" width="13px" height="9px" xmlns="http://www.w3.org/2000/svg">
  <g transform="matrix(1 0 0 1 -1208 -119 )">
    <path d="M 5.81124 8.36237  C 5.60928 8.56411  5.34528 8.6729  5.06588 8.6729  C 4.78637 8.6729  4.52248 8.56422  4.32063 8.36237  C 4.30512 8.34686  4.30512 8.33135  4.28961 8.33135  L 0.516830000000001 3.68913  C 0.34611 3.48728  0.37713 3.17675  0.59449 3.00603  C 0.79623 2.83531  1.10687 2.86633  1.27759 3.08369  L 5.01935 7.69489  C 5.05037 7.7258  5.08139 7.7258  5.12803 7.67927  L 11.73606 1.0928  C 11.825806240353 0.995057836150909  11.9524221451871 0.939421921323173  12.0851169764783 0.939421921323173  C 12.2103423466732 0.939421921323173  12.3304770202634 0.988988244128788  12.41927 1.07729  C 12.5170059001195 1.16701648024575  12.572639617755 1.29361401759283  12.572639617755 1.42629087099783  C 12.572639617755 1.55149873851801  12.5230756698033 1.67161565244995  12.43478 1.76039  L 5.81124 8.36237  Z " fill-rule="nonzero" fill="#000000" stroke="none" transform="matrix(1 0 0 1 1208 119 )" />
  </g>
</svg>