<?xml version="1.0" encoding="utf-8"?>
<svg version="1.1" xmlns:xlink="http://www.w3.org/1999/xlink" width="13px" height="13px" xmlns="http://www.w3.org/2000/svg">
  <g transform="matrix(1 0 0 1 -1336 -95 )">
    <path d="M 11.6446923828125 6.0303564453125  L 6.9428076171875 6.0303564453125  L 6.9428076171875 1.3284716796875  C 6.9428076171875 1.0117578125  6.686123046875 0.755087890625  6.369423828125 0.755087890625  C 6.052724609375 0.755087890625  5.7960400390625 1.0117724609375  5.7960400390625 1.3284716796875  L 5.7960400390625 6.0303564453125  L 1.3235205078125 6.0303564453125  C 1.006806640625 6.0303564453125  0.75013671875 6.287041015625  0.75013671875 6.6037109375  C 0.75013671875 6.920380859375  1.0068212890625 7.1770654296875  1.3235205078125 7.1770654296875  L 5.7960400390625 7.1770654296875  L 5.7960400390625 11.6495849609375  C 5.7960400390625 11.966298828125  6.0527392578125 12.222939453125  6.369423828125 12.222939453125  C 6.6861376953125 12.222939453125  6.9428076171875 11.9662548828125  6.9428076171875 11.6495556640625  L 6.9428076171875 7.17705078125  L 11.6446923828125 7.17705078125  C 11.96140625 7.17705078125  12.218076171875 6.92041015625  12.218076171875 6.6036962890625  C 12.218076171875 6.286982421875  11.9613916015625 6.0303125  11.6446923828125 6.0303125  Z " fill-rule="nonzero" fill="#333333" stroke="none" transform="matrix(1 0 0 1 1336 95 )" />
  </g>
</svg>