<?xml version="1.0" encoding="utf-8"?>
<svg version="1.1" xmlns:xlink="http://www.w3.org/1999/xlink" width="43px" height="43px" xmlns="http://www.w3.org/2000/svg">
  <g transform="matrix(1 0 0 1 -326 -514 )">
    <path d="M 43 6.71875  C 43 2.95625  40.04375 0  36.28125 0  L 6.71875 0  C 2.95625 0  0 2.95625  0 6.71875  L 0 36.28125  C 0 40.04375  2.95625 43  6.71875 43  L 36.28125 43  C 40.04375 43  43 40.04375  43 36.28125  L 43 6.71875  Z M 40 6.71875  L 40 36.28125  C 40.3125 38.565625  38.565625 40.3125  36.28125 40  L 6.71875 40  C 4.434375 40.3125  2.6875 38.565625  3 36.28125  L 3 6.71875  C 2.6875 4.434375  4.434375 2.6875  6.71875 3  L 36.28125 3  C 38.565625 2.6875  40.3125 4.434375  40 6.71875  Z M 33.59375 21.5  C 33.59375 20.69375  33.05625 20.15625  32.25 20.15625  L 22.84375 20.15625  L 22.84375 10.75  C 22.84375 9.94375  22.30625 9.40625  21.5 9.40625  C 20.69375 9.40625  20.15625 9.94375  20.15625 10.75  L 20.15625 20.15625  L 10.75 20.15625  C 9.94375 20.15625  9.40625 20.69375  9.40625 21.5  C 9.40625 22.30625  9.94375 22.84375  10.75 22.84375  L 20.15625 22.84375  L 20.15625 32.25  C 20.15625 33.05625  20.69375 33.59375  21.5 33.59375  C 22.30625 33.59375  22.84375 33.05625  22.84375 32.25  L 22.84375 22.84375  L 32.25 22.84375  C 33.05625 22.84375  33.59375 22.30625  33.59375 21.5  Z " fill-rule="nonzero" fill="#aaaaaa" stroke="none" transform="matrix(1 0 0 1 326 514 )" />
  </g>
</svg>